<svg width="553" height="61" viewBox="0 0 553 61" fill="none" xmlns="http://www.w3.org/2000/svg">
<rect width="247" height="61" rx="30.5" fill="#F8E566"/>
<path d="M93.024 40.24C92.464 40.24 91.92 40.16 91.392 40C90.864 39.84 90.384 39.624 89.952 39.352C89.52 39.064 89.16 38.744 88.872 38.392C88.584 38.024 88.4 37.648 88.32 37.264L89.088 36.976L88.92 39.952H85.704V22.24H89.112V30.28L88.464 30.016C88.56 29.632 88.744 29.264 89.016 28.912C89.288 28.544 89.632 28.224 90.048 27.952C90.464 27.664 90.92 27.44 91.416 27.28C91.912 27.12 92.424 27.04 92.952 27.04C94.056 27.04 95.04 27.328 95.904 27.904C96.768 28.464 97.448 29.24 97.944 30.232C98.456 31.224 98.712 32.36 98.712 33.64C98.712 34.92 98.464 36.056 97.968 37.048C97.472 38.04 96.792 38.824 95.928 39.4C95.08 39.96 94.112 40.24 93.024 40.24ZM92.208 37.336C92.848 37.336 93.4 37.184 93.864 36.88C94.344 36.56 94.72 36.128 94.992 35.584C95.264 35.024 95.4 34.376 95.4 33.64C95.4 32.92 95.264 32.28 94.992 31.72C94.736 31.16 94.368 30.728 93.888 30.424C93.408 30.12 92.848 29.968 92.208 29.968C91.568 29.968 91.008 30.12 90.528 30.424C90.048 30.728 89.672 31.16 89.4 31.72C89.128 32.28 88.992 32.92 88.992 33.64C88.992 34.376 89.128 35.024 89.4 35.584C89.672 36.128 90.048 36.56 90.528 36.88C91.008 37.184 91.568 37.336 92.208 37.336ZM105.658 40.24C104.73 40.24 103.93 40.04 103.258 39.64C102.602 39.224 102.09 38.64 101.722 37.888C101.37 37.12 101.194 36.2 101.194 35.128V27.304H104.602V34.576C104.602 35.152 104.698 35.656 104.89 36.088C105.082 36.504 105.354 36.824 105.706 37.048C106.058 37.272 106.49 37.384 107.002 37.384C107.37 37.384 107.714 37.328 108.034 37.216C108.354 37.088 108.626 36.912 108.85 36.688C109.074 36.464 109.25 36.2 109.378 35.896C109.506 35.592 109.57 35.264 109.57 34.912V27.304H112.978V40H109.738L109.618 37.384L110.242 37.096C110.05 37.688 109.73 38.224 109.282 38.704C108.834 39.184 108.298 39.56 107.674 39.832C107.05 40.104 106.378 40.24 105.658 40.24ZM117.631 40V24.088H121.039V40H117.631ZM115.255 30.352V27.304H123.631V30.352H115.255ZM127.076 40V24.088H130.484V40H127.076ZM124.7 30.352V27.304H133.076V30.352H124.7ZM141.085 40.24C139.789 40.24 138.629 39.96 137.605 39.4C136.597 38.824 135.797 38.04 135.205 37.048C134.629 36.056 134.341 34.92 134.341 33.64C134.341 32.36 134.629 31.232 135.205 30.256C135.797 29.264 136.597 28.48 137.605 27.904C138.629 27.328 139.789 27.04 141.085 27.04C142.365 27.04 143.509 27.328 144.517 27.904C145.541 28.48 146.341 29.264 146.917 30.256C147.493 31.232 147.781 32.36 147.781 33.64C147.781 34.92 147.493 36.056 146.917 37.048C146.341 38.04 145.541 38.824 144.517 39.4C143.509 39.96 142.365 40.24 141.085 40.24ZM141.085 37.264C141.709 37.264 142.269 37.112 142.765 36.808C143.261 36.488 143.645 36.056 143.917 35.512C144.205 34.952 144.349 34.328 144.349 33.64C144.349 32.936 144.205 32.312 143.917 31.768C143.645 31.208 143.261 30.776 142.765 30.472C142.269 30.152 141.709 29.992 141.085 29.992C140.445 29.992 139.877 30.152 139.381 30.472C138.885 30.792 138.493 31.224 138.205 31.768C137.917 32.312 137.781 32.936 137.797 33.64C137.781 34.328 137.917 34.952 138.205 35.512C138.493 36.056 138.885 36.488 139.381 36.808C139.877 37.112 140.445 37.264 141.085 37.264ZM150.345 40V27.304H153.609L153.705 29.896L153.033 30.184C153.209 29.608 153.521 29.088 153.969 28.624C154.433 28.144 154.985 27.76 155.625 27.472C156.265 27.184 156.937 27.04 157.641 27.04C158.601 27.04 159.401 27.232 160.041 27.616C160.697 28 161.185 28.584 161.505 29.368C161.841 30.136 162.009 31.088 162.009 32.224V40H158.601V32.488C158.601 31.912 158.521 31.432 158.361 31.048C158.201 30.664 157.953 30.384 157.617 30.208C157.297 30.016 156.897 29.936 156.417 29.968C156.033 29.968 155.673 30.032 155.337 30.16C155.017 30.272 154.737 30.44 154.497 30.664C154.273 30.888 154.089 31.144 153.945 31.432C153.817 31.72 153.753 32.032 153.753 32.368V40H152.073C151.705 40 151.377 40 151.089 40C150.801 40 150.553 40 150.345 40Z" fill="black"/>
<rect x="306" width="247" height="61" rx="30.5" fill="#AD0000"/>
<path d="M399.024 40.24C398.464 40.24 397.92 40.16 397.392 40C396.864 39.84 396.384 39.624 395.952 39.352C395.52 39.064 395.16 38.744 394.872 38.392C394.584 38.024 394.4 37.648 394.32 37.264L395.088 36.976L394.92 39.952H391.704V22.24H395.112V30.28L394.464 30.016C394.56 29.632 394.744 29.264 395.016 28.912C395.288 28.544 395.632 28.224 396.048 27.952C396.464 27.664 396.92 27.44 397.416 27.28C397.912 27.12 398.424 27.04 398.952 27.04C400.056 27.04 401.04 27.328 401.904 27.904C402.768 28.464 403.448 29.24 403.944 30.232C404.456 31.224 404.712 32.36 404.712 33.64C404.712 34.92 404.464 36.056 403.968 37.048C403.472 38.04 402.792 38.824 401.928 39.4C401.08 39.96 400.112 40.24 399.024 40.24ZM398.208 37.336C398.848 37.336 399.4 37.184 399.864 36.88C400.344 36.56 400.72 36.128 400.992 35.584C401.264 35.024 401.4 34.376 401.4 33.64C401.4 32.92 401.264 32.28 400.992 31.72C400.736 31.16 400.368 30.728 399.888 30.424C399.408 30.12 398.848 29.968 398.208 29.968C397.568 29.968 397.008 30.12 396.528 30.424C396.048 30.728 395.672 31.16 395.4 31.72C395.128 32.28 394.992 32.92 394.992 33.64C394.992 34.376 395.128 35.024 395.4 35.584C395.672 36.128 396.048 36.56 396.528 36.88C397.008 37.184 397.568 37.336 398.208 37.336ZM411.658 40.24C410.73 40.24 409.93 40.04 409.258 39.64C408.602 39.224 408.09 38.64 407.722 37.888C407.37 37.12 407.194 36.2 407.194 35.128V27.304H410.602V34.576C410.602 35.152 410.698 35.656 410.89 36.088C411.082 36.504 411.354 36.824 411.706 37.048C412.058 37.272 412.49 37.384 413.002 37.384C413.37 37.384 413.714 37.328 414.034 37.216C414.354 37.088 414.626 36.912 414.85 36.688C415.074 36.464 415.25 36.2 415.378 35.896C415.506 35.592 415.57 35.264 415.57 34.912V27.304H418.978V40H415.738L415.618 37.384L416.242 37.096C416.05 37.688 415.73 38.224 415.282 38.704C414.834 39.184 414.298 39.56 413.674 39.832C413.05 40.104 412.378 40.24 411.658 40.24ZM423.631 40V24.088H427.039V40H423.631ZM421.255 30.352V27.304H429.631V30.352H421.255ZM433.076 40V24.088H436.484V40H433.076ZM430.7 30.352V27.304H439.076V30.352H430.7ZM447.085 40.24C445.789 40.24 444.629 39.96 443.605 39.4C442.597 38.824 441.797 38.04 441.205 37.048C440.629 36.056 440.341 34.92 440.341 33.64C440.341 32.36 440.629 31.232 441.205 30.256C441.797 29.264 442.597 28.48 443.605 27.904C444.629 27.328 445.789 27.04 447.085 27.04C448.365 27.04 449.509 27.328 450.517 27.904C451.541 28.48 452.341 29.264 452.917 30.256C453.493 31.232 453.781 32.36 453.781 33.64C453.781 34.92 453.493 36.056 452.917 37.048C452.341 38.04 451.541 38.824 450.517 39.4C449.509 39.96 448.365 40.24 447.085 40.24ZM447.085 37.264C447.709 37.264 448.269 37.112 448.765 36.808C449.261 36.488 449.645 36.056 449.917 35.512C450.205 34.952 450.349 34.328 450.349 33.64C450.349 32.936 450.205 32.312 449.917 31.768C449.645 31.208 449.261 30.776 448.765 30.472C448.269 30.152 447.709 29.992 447.085 29.992C446.445 29.992 445.877 30.152 445.381 30.472C444.885 30.792 444.493 31.224 444.205 31.768C443.917 32.312 443.781 32.936 443.797 33.64C443.781 34.328 443.917 34.952 444.205 35.512C444.493 36.056 444.885 36.488 445.381 36.808C445.877 37.112 446.445 37.264 447.085 37.264ZM456.345 40V27.304H459.609L459.705 29.896L459.033 30.184C459.209 29.608 459.521 29.088 459.969 28.624C460.433 28.144 460.985 27.76 461.625 27.472C462.265 27.184 462.937 27.04 463.641 27.04C464.601 27.04 465.401 27.232 466.041 27.616C466.697 28 467.185 28.584 467.505 29.368C467.841 30.136 468.009 31.088 468.009 32.224V40H464.601V32.488C464.601 31.912 464.521 31.432 464.361 31.048C464.201 30.664 463.953 30.384 463.617 30.208C463.297 30.016 462.897 29.936 462.417 29.968C462.033 29.968 461.673 30.032 461.337 30.16C461.017 30.272 460.737 30.44 460.497 30.664C460.273 30.888 460.089 31.144 459.945 31.432C459.817 31.72 459.753 32.032 459.753 32.368V40H458.073C457.705 40 457.377 40 457.089 40C456.801 40 456.553 40 456.345 40Z" fill="#F8F9FA"/>
</svg>
