<svg width="257" height="667" viewBox="0 0 257 667" fill="none" xmlns="http://www.w3.org/2000/svg">
<circle cx="41" cy="41" r="40.5" fill="#AD0000" stroke="black"/>
<circle cx="41" cy="392" r="40.5" fill="#718F99" stroke="black"/>
<circle cx="41" cy="275" r="40.5" fill="#F8E566" stroke="black"/>
<circle cx="41" cy="626" r="40.5" fill="#212529" stroke="black"/>
<circle cx="41" cy="158" r="40.5" fill="#F9E6E6" stroke="black"/>
<circle cx="41" cy="509" r="40.5" fill="#F8F9FA" stroke="black"/>
<path d="M122.96 53C122.491 53 122.117 52.8187 121.84 52.456C121.584 52.0933 121.488 51.656 121.552 51.144L124.88 31.784C124.944 31.4213 125.104 31.1333 125.36 30.92C125.616 30.7067 125.915 30.6 126.256 30.6C126.747 30.6 127.131 30.7813 127.408 31.144C127.685 31.5067 127.781 31.944 127.696 32.456L124.368 51.816C124.325 52.1573 124.165 52.4453 123.888 52.68C123.632 52.8933 123.323 53 122.96 53ZM121.744 38.696C121.317 38.696 120.955 38.5573 120.656 38.28C120.379 37.9813 120.24 37.6187 120.24 37.192C120.24 36.7867 120.379 36.456 120.656 36.2C120.955 35.944 121.317 35.816 121.744 35.816H137.232C137.659 35.816 138.011 35.9653 138.288 36.264C138.587 36.5413 138.736 36.8933 138.736 37.32C138.736 37.7253 138.587 38.056 138.288 38.312C138.011 38.568 137.659 38.696 137.232 38.696H121.744ZM131.504 53C131.013 53 130.629 52.8187 130.352 52.456C130.075 52.0933 129.979 51.656 130.064 51.144L133.392 31.784C133.456 31.4213 133.616 31.1333 133.872 30.92C134.128 30.7067 134.437 30.6 134.8 30.6C135.291 30.6 135.664 30.7813 135.92 31.144C136.197 31.5067 136.293 31.944 136.208 32.456L132.88 51.816C132.837 52.1573 132.688 52.4453 132.432 52.68C132.176 52.8933 131.867 53 131.504 53ZM120.528 47.624C120.101 47.624 119.739 47.4853 119.44 47.208C119.163 46.9093 119.024 46.5573 119.024 46.152C119.024 45.7467 119.163 45.416 119.44 45.16C119.739 44.904 120.101 44.776 120.528 44.776H136.048C136.475 44.776 136.827 44.9147 137.104 45.192C137.403 45.4693 137.552 45.8213 137.552 46.248C137.552 46.6533 137.403 46.984 137.104 47.24C136.827 47.496 136.475 47.624 136.048 47.624H120.528ZM150.342 34.76L143.142 52.04C143.014 52.3813 142.822 52.648 142.566 52.84C142.31 53.032 142.022 53.128 141.702 53.128C141.233 53.128 140.881 53 140.646 52.744C140.411 52.4667 140.283 52.1253 140.262 51.72C140.262 51.5707 140.294 51.4 140.358 51.208L148.486 31.56C148.635 31.1973 148.849 30.92 149.126 30.728C149.425 30.536 149.745 30.4507 150.086 30.472C150.406 30.472 150.705 30.568 150.982 30.76C151.259 30.952 151.462 31.2187 151.59 31.56L159.622 50.92C159.707 51.1333 159.75 51.3467 159.75 51.56C159.75 52.0293 159.59 52.4133 159.27 52.712C158.971 52.9893 158.63 53.128 158.246 53.128C157.926 53.128 157.627 53.032 157.35 52.84C157.094 52.6267 156.902 52.36 156.774 52.04L149.51 34.856L150.342 34.76ZM144.422 47.496L145.862 44.424H154.918L155.462 47.496H144.422ZM172.313 30.6C173.871 30.6 175.247 30.8987 176.441 31.496C177.636 32.072 178.628 32.8827 179.417 33.928C180.228 34.952 180.836 36.1467 181.241 37.512C181.647 38.856 181.849 40.2853 181.849 41.8C181.849 43.8693 181.487 45.7573 180.761 47.464C180.036 49.1493 178.969 50.4933 177.561 51.496C176.153 52.4987 174.404 53 172.313 53H164.505C164.057 53 163.673 52.8507 163.353 52.552C163.033 52.232 162.873 51.8373 162.873 51.368V32.232C162.873 31.7627 163.033 31.3787 163.353 31.08C163.673 30.76 164.057 30.6 164.505 30.6H172.313ZM171.993 49.928C173.508 49.928 174.735 49.5547 175.673 48.808C176.612 48.0613 177.295 47.08 177.721 45.864C178.169 44.6267 178.393 43.272 178.393 41.8C178.393 40.712 178.265 39.688 178.009 38.728C177.775 37.7467 177.391 36.8827 176.857 36.136C176.345 35.368 175.684 34.7707 174.873 34.344C174.084 33.896 173.124 33.672 171.993 33.672H165.945L166.233 33.384V50.248L166.041 49.928H171.993ZM192.916 53.32C191.124 53.32 189.609 52.8293 188.372 51.848C187.134 50.8453 186.196 49.48 185.556 47.752C184.937 46.0027 184.628 44.0187 184.628 41.8C184.628 39.56 184.937 37.576 185.556 35.848C186.196 34.0987 187.134 32.7333 188.372 31.752C189.609 30.7707 191.124 30.28 192.916 30.28C194.708 30.28 196.212 30.7707 197.428 31.752C198.665 32.7333 199.604 34.0987 200.244 35.848C200.884 37.576 201.204 39.56 201.204 41.8C201.204 44.0187 200.884 46.0027 200.244 47.752C199.604 49.48 198.665 50.8453 197.428 51.848C196.212 52.8293 194.708 53.32 192.916 53.32ZM192.916 50.088C193.918 50.088 194.772 49.768 195.476 49.128C196.201 48.488 196.756 47.5493 197.14 46.312C197.545 45.0747 197.748 43.5707 197.748 41.8C197.748 40.008 197.545 38.4933 197.14 37.256C196.756 36.0187 196.201 35.08 195.476 34.44C194.772 33.8 193.918 33.48 192.916 33.48C191.913 33.48 191.049 33.8 190.324 34.44C189.598 35.08 189.044 36.0187 188.66 37.256C188.276 38.4933 188.084 40.008 188.084 41.8C188.084 43.5707 188.276 45.0747 188.66 46.312C189.044 47.5493 189.598 48.488 190.324 49.128C191.049 49.768 191.913 50.088 192.916 50.088ZM212.384 53.32C210.592 53.32 209.078 52.8293 207.84 51.848C206.603 50.8453 205.664 49.48 205.024 47.752C204.406 46.0027 204.096 44.0187 204.096 41.8C204.096 39.56 204.406 37.576 205.024 35.848C205.664 34.0987 206.603 32.7333 207.84 31.752C209.078 30.7707 210.592 30.28 212.384 30.28C214.176 30.28 215.68 30.7707 216.896 31.752C218.134 32.7333 219.072 34.0987 219.712 35.848C220.352 37.576 220.672 39.56 220.672 41.8C220.672 44.0187 220.352 46.0027 219.712 47.752C219.072 49.48 218.134 50.8453 216.896 51.848C215.68 52.8293 214.176 53.32 212.384 53.32ZM212.384 50.088C213.387 50.088 214.24 49.768 214.944 49.128C215.67 48.488 216.224 47.5493 216.608 46.312C217.014 45.0747 217.216 43.5707 217.216 41.8C217.216 40.008 217.014 38.4933 216.608 37.256C216.224 36.0187 215.67 35.08 214.944 34.44C214.24 33.8 213.387 33.48 212.384 33.48C211.382 33.48 210.518 33.8 209.792 34.44C209.067 35.08 208.512 36.0187 208.128 37.256C207.744 38.4933 207.552 40.008 207.552 41.8C207.552 43.5707 207.744 45.0747 208.128 46.312C208.512 47.5493 209.067 48.488 209.792 49.128C210.518 49.768 211.382 50.088 212.384 50.088ZM231.853 53.32C230.061 53.32 228.546 52.8293 227.309 51.848C226.072 50.8453 225.133 49.48 224.493 47.752C223.874 46.0027 223.565 44.0187 223.565 41.8C223.565 39.56 223.874 37.576 224.493 35.848C225.133 34.0987 226.072 32.7333 227.309 31.752C228.546 30.7707 230.061 30.28 231.853 30.28C233.645 30.28 235.149 30.7707 236.365 31.752C237.602 32.7333 238.541 34.0987 239.181 35.848C239.821 37.576 240.141 39.56 240.141 41.8C240.141 44.0187 239.821 46.0027 239.181 47.752C238.541 49.48 237.602 50.8453 236.365 51.848C235.149 52.8293 233.645 53.32 231.853 53.32ZM231.853 50.088C232.856 50.088 233.709 49.768 234.413 49.128C235.138 48.488 235.693 47.5493 236.077 46.312C236.482 45.0747 236.685 43.5707 236.685 41.8C236.685 40.008 236.482 38.4933 236.077 37.256C235.693 36.0187 235.138 35.08 234.413 34.44C233.709 33.8 232.856 33.48 231.853 33.48C230.85 33.48 229.986 33.8 229.261 34.44C228.536 35.08 227.981 36.0187 227.597 37.256C227.213 38.4933 227.021 40.008 227.021 41.8C227.021 43.5707 227.213 45.0747 227.597 46.312C227.981 47.5493 228.536 48.488 229.261 49.128C229.986 49.768 230.85 50.088 231.853 50.088Z" fill="black"/>
<path d="M122.96 170C122.491 170 122.117 169.819 121.84 169.456C121.584 169.093 121.488 168.656 121.552 168.144L124.88 148.784C124.944 148.421 125.104 148.133 125.36 147.92C125.616 147.707 125.915 147.6 126.256 147.6C126.747 147.6 127.131 147.781 127.408 148.144C127.685 148.507 127.781 148.944 127.696 149.456L124.368 168.816C124.325 169.157 124.165 169.445 123.888 169.68C123.632 169.893 123.323 170 122.96 170ZM121.744 155.696C121.317 155.696 120.955 155.557 120.656 155.28C120.379 154.981 120.24 154.619 120.24 154.192C120.24 153.787 120.379 153.456 120.656 153.2C120.955 152.944 121.317 152.816 121.744 152.816H137.232C137.659 152.816 138.011 152.965 138.288 153.264C138.587 153.541 138.736 153.893 138.736 154.32C138.736 154.725 138.587 155.056 138.288 155.312C138.011 155.568 137.659 155.696 137.232 155.696H121.744ZM131.504 170C131.013 170 130.629 169.819 130.352 169.456C130.075 169.093 129.979 168.656 130.064 168.144L133.392 148.784C133.456 148.421 133.616 148.133 133.872 147.92C134.128 147.707 134.437 147.6 134.8 147.6C135.291 147.6 135.664 147.781 135.92 148.144C136.197 148.507 136.293 148.944 136.208 149.456L132.88 168.816C132.837 169.157 132.688 169.445 132.432 169.68C132.176 169.893 131.867 170 131.504 170ZM120.528 164.624C120.101 164.624 119.739 164.485 119.44 164.208C119.163 163.909 119.024 163.557 119.024 163.152C119.024 162.747 119.163 162.416 119.44 162.16C119.739 161.904 120.101 161.776 120.528 161.776H136.048C136.475 161.776 136.827 161.915 137.104 162.192C137.403 162.469 137.552 162.821 137.552 163.248C137.552 163.653 137.403 163.984 137.104 164.24C136.827 164.496 136.475 164.624 136.048 164.624H120.528ZM144.038 170C143.526 170 143.11 169.851 142.79 169.552C142.491 169.232 142.342 168.837 142.342 168.368V149.232C142.342 148.763 142.502 148.379 142.822 148.08C143.142 147.76 143.526 147.6 143.974 147.6H154.79C155.259 147.6 155.643 147.749 155.942 148.048C156.262 148.347 156.422 148.72 156.422 149.168C156.422 149.573 156.262 149.925 155.942 150.224C155.643 150.523 155.259 150.672 154.79 150.672H145.446L145.67 150.352V157.488L145.478 157.104H153.35C153.819 157.104 154.203 157.253 154.502 157.552C154.822 157.851 154.982 158.224 154.982 158.672C154.982 159.077 154.822 159.429 154.502 159.728C154.203 160.027 153.819 160.176 153.35 160.176H145.414L145.67 159.92V168.368C145.67 168.837 145.51 169.232 145.19 169.552C144.87 169.851 144.486 170 144.038 170ZM166.773 147.216C167.968 147.216 169.024 147.451 169.941 147.92C170.88 148.389 171.659 149.029 172.277 149.84C172.917 150.629 173.397 151.536 173.717 152.56C174.059 153.563 174.229 154.608 174.229 155.696C174.229 156.528 174.133 157.488 173.941 158.576C173.749 159.643 173.429 160.763 172.981 161.936C172.533 163.109 171.936 164.24 171.189 165.328C170.464 166.416 169.547 167.397 168.437 168.272C167.349 169.125 166.048 169.787 164.533 170.256C164.32 170.299 164.117 170.32 163.925 170.32C163.499 170.32 163.115 170.203 162.773 169.968C162.453 169.733 162.293 169.349 162.293 168.816C162.293 168.411 162.421 168.069 162.677 167.792C162.933 167.515 163.275 167.312 163.701 167.184C164.747 166.8 165.771 166.213 166.773 165.424C167.776 164.613 168.64 163.664 169.365 162.576C170.091 161.467 170.581 160.283 170.837 159.024L171.637 158.896C171.317 159.344 170.912 159.803 170.421 160.272C169.931 160.741 169.344 161.136 168.661 161.456C167.979 161.755 167.189 161.904 166.293 161.904C164.907 161.904 163.701 161.595 162.677 160.976C161.653 160.336 160.864 159.461 160.309 158.352C159.755 157.243 159.477 155.973 159.477 154.544C159.477 153.221 159.797 152.005 160.437 150.896C161.099 149.787 161.973 148.901 163.061 148.24C164.171 147.557 165.408 147.216 166.773 147.216ZM166.805 150.16C166.016 150.16 165.312 150.352 164.693 150.736C164.075 151.12 163.584 151.643 163.221 152.304C162.859 152.965 162.677 153.712 162.677 154.544C162.677 155.376 162.837 156.133 163.157 156.816C163.477 157.477 163.947 158 164.565 158.384C165.184 158.768 165.909 158.96 166.741 158.96C167.573 158.96 168.309 158.768 168.949 158.384C169.589 157.979 170.091 157.435 170.453 156.752C170.816 156.069 170.997 155.323 170.997 154.512C170.997 153.701 170.816 152.976 170.453 152.336C170.091 151.675 169.6 151.152 168.981 150.768C168.363 150.363 167.637 150.16 166.805 150.16ZM180.099 147.6H191.171C191.619 147.6 191.992 147.749 192.291 148.048C192.611 148.347 192.771 148.72 192.771 149.168C192.771 149.616 192.611 149.979 192.291 150.256C191.992 150.533 191.619 150.672 191.171 150.672H181.507L181.827 150.128V157.296L181.539 156.976H189.731C190.179 156.976 190.552 157.125 190.851 157.424C191.171 157.723 191.331 158.107 191.331 158.576C191.331 159.024 191.171 159.387 190.851 159.664C190.552 159.941 190.179 160.08 189.731 160.08H181.603L181.827 159.792V167.184L181.603 166.928H191.171C191.619 166.928 191.992 167.088 192.291 167.408C192.611 167.707 192.771 168.059 192.771 168.464C192.771 168.912 192.611 169.285 192.291 169.584C191.992 169.861 191.619 170 191.171 170H180.099C179.651 170 179.267 169.851 178.947 169.552C178.627 169.232 178.467 168.837 178.467 168.368V149.232C178.467 148.763 178.627 148.379 178.947 148.08C179.267 147.76 179.651 147.6 180.099 147.6ZM203.308 170.32C202.114 170.32 201.047 170.085 200.108 169.616C199.191 169.147 198.412 168.507 197.772 167.696C197.154 166.885 196.674 165.979 196.332 164.976C196.012 163.952 195.852 162.907 195.852 161.84C195.852 161.008 195.948 160.059 196.14 158.992C196.332 157.904 196.652 156.784 197.1 155.632C197.548 154.459 198.135 153.339 198.86 152.272C199.607 151.205 200.524 150.245 201.612 149.392C202.722 148.517 204.034 147.856 205.548 147.408C205.762 147.344 205.964 147.312 206.156 147.312C206.583 147.312 206.956 147.429 207.276 147.664C207.618 147.877 207.788 148.272 207.788 148.848C207.788 149.232 207.66 149.573 207.404 149.872C207.148 150.149 206.807 150.352 206.38 150.48C205.612 150.736 204.844 151.12 204.076 151.632C203.308 152.144 202.594 152.752 201.932 153.456C201.271 154.16 200.706 154.949 200.236 155.824C199.788 156.677 199.458 157.573 199.244 158.512L198.444 158.64C198.764 158.149 199.17 157.68 199.66 157.232C200.172 156.763 200.77 156.379 201.452 156.08C202.135 155.76 202.914 155.6 203.788 155.6C204.663 155.6 205.506 155.792 206.316 156.176C207.127 156.56 207.852 157.093 208.492 157.776C209.154 158.459 209.666 159.248 210.028 160.144C210.412 161.04 210.604 161.989 210.604 162.992C210.604 164.315 210.274 165.541 209.612 166.672C208.972 167.781 208.098 168.667 206.988 169.328C205.9 169.989 204.674 170.32 203.308 170.32ZM203.276 167.344C204.066 167.344 204.77 167.163 205.388 166.8C206.007 166.416 206.498 165.893 206.86 165.232C207.223 164.571 207.404 163.824 207.404 162.992C207.404 162.16 207.234 161.413 206.892 160.752C206.551 160.091 206.071 159.557 205.452 159.152C204.855 158.747 204.151 158.544 203.34 158.544C202.508 158.544 201.772 158.747 201.132 159.152C200.492 159.557 199.991 160.101 199.628 160.784C199.266 161.445 199.084 162.192 199.084 163.024C199.084 163.792 199.266 164.517 199.628 165.2C199.991 165.861 200.482 166.384 201.1 166.768C201.74 167.152 202.466 167.344 203.276 167.344ZM215.911 147.6H226.984C227.432 147.6 227.805 147.749 228.104 148.048C228.424 148.347 228.583 148.72 228.583 149.168C228.583 149.616 228.424 149.979 228.104 150.256C227.805 150.533 227.432 150.672 226.984 150.672H217.32L217.64 150.128V157.296L217.352 156.976H225.544C225.992 156.976 226.365 157.125 226.664 157.424C226.984 157.723 227.144 158.107 227.144 158.576C227.144 159.024 226.984 159.387 226.664 159.664C226.365 159.941 225.992 160.08 225.544 160.08H217.416L217.64 159.792V167.184L217.416 166.928H226.984C227.432 166.928 227.805 167.088 228.104 167.408C228.424 167.707 228.583 168.059 228.583 168.464C228.583 168.912 228.424 169.285 228.104 169.584C227.805 169.861 227.432 170 226.984 170H215.911C215.464 170 215.08 169.851 214.76 169.552C214.44 169.232 214.28 168.837 214.28 168.368V149.232C214.28 148.763 214.44 148.379 214.76 148.08C215.08 147.76 215.464 147.6 215.911 147.6ZM239.121 170.32C237.926 170.32 236.859 170.085 235.921 169.616C235.003 169.147 234.225 168.507 233.585 167.696C232.966 166.885 232.486 165.979 232.145 164.976C231.825 163.952 231.665 162.907 231.665 161.84C231.665 161.008 231.761 160.059 231.953 158.992C232.145 157.904 232.465 156.784 232.913 155.632C233.361 154.459 233.947 153.339 234.673 152.272C235.419 151.205 236.337 150.245 237.425 149.392C238.534 148.517 239.846 147.856 241.361 147.408C241.574 147.344 241.777 147.312 241.969 147.312C242.395 147.312 242.769 147.429 243.089 147.664C243.43 147.877 243.601 148.272 243.601 148.848C243.601 149.232 243.473 149.573 243.217 149.872C242.961 150.149 242.619 150.352 242.193 150.48C241.425 150.736 240.657 151.12 239.889 151.632C239.121 152.144 238.406 152.752 237.745 153.456C237.083 154.16 236.518 154.949 236.049 155.824C235.601 156.677 235.27 157.573 235.057 158.512L234.257 158.64C234.577 158.149 234.982 157.68 235.473 157.232C235.985 156.763 236.582 156.379 237.265 156.08C237.947 155.76 238.726 155.6 239.601 155.6C240.475 155.6 241.318 155.792 242.129 156.176C242.939 156.56 243.665 157.093 244.305 157.776C244.966 158.459 245.478 159.248 245.841 160.144C246.225 161.04 246.417 161.989 246.417 162.992C246.417 164.315 246.086 165.541 245.425 166.672C244.785 167.781 243.91 168.667 242.801 169.328C241.713 169.989 240.486 170.32 239.121 170.32ZM239.089 167.344C239.878 167.344 240.582 167.163 241.201 166.8C241.819 166.416 242.31 165.893 242.673 165.232C243.035 164.571 243.217 163.824 243.217 162.992C243.217 162.16 243.046 161.413 242.705 160.752C242.363 160.091 241.883 159.557 241.265 159.152C240.667 158.747 239.963 158.544 239.153 158.544C238.321 158.544 237.585 158.747 236.945 159.152C236.305 159.557 235.803 160.101 235.441 160.784C235.078 161.445 234.897 162.192 234.897 163.024C234.897 163.792 235.078 164.517 235.441 165.2C235.803 165.861 236.294 166.384 236.913 166.768C237.553 167.152 238.278 167.344 239.089 167.344Z" fill="black"/>
<path d="M122.96 287C122.491 287 122.117 286.819 121.84 286.456C121.584 286.093 121.488 285.656 121.552 285.144L124.88 265.784C124.944 265.421 125.104 265.133 125.36 264.92C125.616 264.707 125.915 264.6 126.256 264.6C126.747 264.6 127.131 264.781 127.408 265.144C127.685 265.507 127.781 265.944 127.696 266.456L124.368 285.816C124.325 286.157 124.165 286.445 123.888 286.68C123.632 286.893 123.323 287 122.96 287ZM121.744 272.696C121.317 272.696 120.955 272.557 120.656 272.28C120.379 271.981 120.24 271.619 120.24 271.192C120.24 270.787 120.379 270.456 120.656 270.2C120.955 269.944 121.317 269.816 121.744 269.816H137.232C137.659 269.816 138.011 269.965 138.288 270.264C138.587 270.541 138.736 270.893 138.736 271.32C138.736 271.725 138.587 272.056 138.288 272.312C138.011 272.568 137.659 272.696 137.232 272.696H121.744ZM131.504 287C131.013 287 130.629 286.819 130.352 286.456C130.075 286.093 129.979 285.656 130.064 285.144L133.392 265.784C133.456 265.421 133.616 265.133 133.872 264.92C134.128 264.707 134.437 264.6 134.8 264.6C135.291 264.6 135.664 264.781 135.92 265.144C136.197 265.507 136.293 265.944 136.208 266.456L132.88 285.816C132.837 286.157 132.688 286.445 132.432 286.68C132.176 286.893 131.867 287 131.504 287ZM120.528 281.624C120.101 281.624 119.739 281.485 119.44 281.208C119.163 280.909 119.024 280.557 119.024 280.152C119.024 279.747 119.163 279.416 119.44 279.16C119.739 278.904 120.101 278.776 120.528 278.776H136.048C136.475 278.776 136.827 278.915 137.104 279.192C137.403 279.469 137.552 279.821 137.552 280.248C137.552 280.653 137.403 280.984 137.104 281.24C136.827 281.496 136.475 281.624 136.048 281.624H120.528ZM144.038 287C143.526 287 143.11 286.851 142.79 286.552C142.491 286.232 142.342 285.837 142.342 285.368V266.232C142.342 265.763 142.502 265.379 142.822 265.08C143.142 264.76 143.526 264.6 143.974 264.6H154.79C155.259 264.6 155.643 264.749 155.942 265.048C156.262 265.347 156.422 265.72 156.422 266.168C156.422 266.573 156.262 266.925 155.942 267.224C155.643 267.523 155.259 267.672 154.79 267.672H145.446L145.67 267.352V274.488L145.478 274.104H153.35C153.819 274.104 154.203 274.253 154.502 274.552C154.822 274.851 154.982 275.224 154.982 275.672C154.982 276.077 154.822 276.429 154.502 276.728C154.203 277.027 153.819 277.176 153.35 277.176H145.414L145.67 276.92V285.368C145.67 285.837 145.51 286.232 145.19 286.552C144.87 286.851 144.486 287 144.038 287ZM169.909 275.672L169.813 275.096C170.603 275.416 171.296 275.864 171.893 276.44C172.491 276.995 172.949 277.624 173.269 278.328C173.611 279.032 173.781 279.768 173.781 280.536C173.781 281.731 173.451 282.829 172.789 283.832C172.149 284.813 171.275 285.603 170.165 286.2C169.077 286.776 167.861 287.064 166.517 287.064C165.152 287.064 163.915 286.776 162.805 286.2C161.717 285.603 160.843 284.813 160.181 283.832C159.541 282.829 159.221 281.731 159.221 280.536C159.221 279.576 159.424 278.733 159.829 278.008C160.235 277.283 160.747 276.675 161.365 276.184C161.984 275.693 162.613 275.288 163.253 274.968L163.029 275.672C162.496 275.437 161.973 275.117 161.461 274.712C160.971 274.285 160.565 273.752 160.245 273.112C159.925 272.472 159.765 271.736 159.765 270.904C159.765 269.731 160.064 268.675 160.661 267.736C161.259 266.776 162.069 266.019 163.093 265.464C164.117 264.888 165.259 264.6 166.517 264.6C167.776 264.6 168.907 264.888 169.909 265.464C170.912 266.019 171.712 266.776 172.309 267.736C172.907 268.675 173.205 269.731 173.205 270.904C173.205 271.8 173.035 272.568 172.693 273.208C172.352 273.827 171.925 274.339 171.413 274.744C170.901 275.149 170.4 275.459 169.909 275.672ZM162.965 270.968C162.965 271.629 163.125 272.216 163.445 272.728C163.765 273.24 164.192 273.645 164.725 273.944C165.259 274.243 165.856 274.392 166.517 274.392C167.157 274.392 167.744 274.243 168.277 273.944C168.811 273.645 169.227 273.24 169.525 272.728C169.845 272.216 170.005 271.629 170.005 270.968C170.005 269.965 169.675 269.144 169.013 268.504C168.352 267.864 167.52 267.544 166.517 267.544C165.472 267.544 164.619 267.864 163.957 268.504C163.296 269.144 162.965 269.965 162.965 270.968ZM166.517 284.12C167.669 284.12 168.629 283.779 169.397 283.096C170.187 282.392 170.581 281.528 170.581 280.504C170.581 279.8 170.4 279.171 170.037 278.616C169.675 278.061 169.184 277.624 168.565 277.304C167.947 276.984 167.264 276.824 166.517 276.824C165.771 276.824 165.088 276.984 164.469 277.304C163.851 277.624 163.36 278.061 162.997 278.616C162.635 279.171 162.453 279.8 162.453 280.504C162.453 281.528 162.837 282.392 163.605 283.096C164.373 283.779 165.344 284.12 166.517 284.12ZM179.443 264.6H190.515C190.963 264.6 191.336 264.749 191.635 265.048C191.955 265.347 192.115 265.72 192.115 266.168C192.115 266.616 191.955 266.979 191.635 267.256C191.336 267.533 190.963 267.672 190.515 267.672H180.851L181.171 267.128V274.296L180.883 273.976H189.075C189.523 273.976 189.896 274.125 190.195 274.424C190.515 274.723 190.675 275.107 190.675 275.576C190.675 276.024 190.515 276.387 190.195 276.664C189.896 276.941 189.523 277.08 189.075 277.08H180.947L181.171 276.792V284.184L180.947 283.928H190.515C190.963 283.928 191.336 284.088 191.635 284.408C191.955 284.707 192.115 285.059 192.115 285.464C192.115 285.912 191.955 286.285 191.635 286.584C191.336 286.861 190.963 287 190.515 287H179.443C178.995 287 178.611 286.851 178.291 286.552C177.971 286.232 177.811 285.837 177.811 285.368V266.232C177.811 265.763 177.971 265.379 178.291 265.08C178.611 264.76 178.995 264.6 179.443 264.6ZM201.148 287.224C200.316 287.224 199.452 287.096 198.556 286.84C197.681 286.584 196.935 286.2 196.316 285.688C196.081 285.496 195.9 285.251 195.772 284.952C195.644 284.653 195.58 284.365 195.58 284.088C195.58 283.789 195.708 283.501 195.964 283.224C196.241 282.925 196.615 282.776 197.084 282.776C197.425 282.776 197.82 282.947 198.268 283.288C198.695 283.565 199.143 283.8 199.612 283.992C200.103 284.184 200.604 284.28 201.116 284.28C202.225 284.28 203.185 284.077 203.996 283.672C204.807 283.267 205.425 282.701 205.852 281.976C206.3 281.229 206.524 280.365 206.524 279.384C206.524 278.467 206.321 277.688 205.916 277.048C205.511 276.387 204.956 275.875 204.252 275.512C203.569 275.149 202.801 274.968 201.948 274.968C201.244 274.968 200.625 275.085 200.092 275.32C199.559 275.533 199.079 275.757 198.652 275.992C198.225 276.205 197.831 276.312 197.468 276.312C196.913 276.312 196.497 276.195 196.22 275.96C195.943 275.704 195.761 275.405 195.676 275.064C195.612 274.701 195.601 274.371 195.644 274.072L196.764 266.04C196.828 265.677 196.999 265.379 197.276 265.144C197.575 264.888 197.937 264.76 198.364 264.76H207.74C208.167 264.76 208.519 264.909 208.796 265.208C209.095 265.485 209.244 265.837 209.244 266.264C209.244 266.691 209.095 267.043 208.796 267.32C208.519 267.597 208.167 267.736 207.74 267.736H199.164L199.516 267.448L198.492 274.328L198.012 273.368C198.204 273.155 198.524 272.952 198.972 272.76C199.441 272.547 199.964 272.376 200.54 272.248C201.137 272.099 201.735 272.024 202.332 272.024C203.74 272.024 204.999 272.344 206.108 272.984C207.239 273.603 208.124 274.467 208.764 275.576C209.404 276.685 209.724 277.944 209.724 279.352C209.724 280.931 209.372 282.317 208.668 283.512C207.964 284.685 206.972 285.603 205.692 286.264C204.412 286.904 202.897 287.224 201.148 287.224ZM220.777 287.32C219.582 287.32 218.516 287.085 217.577 286.616C216.66 286.147 215.881 285.507 215.241 284.696C214.622 283.885 214.142 282.979 213.801 281.976C213.481 280.952 213.321 279.907 213.321 278.84C213.321 278.008 213.417 277.059 213.609 275.992C213.801 274.904 214.121 273.784 214.569 272.632C215.017 271.459 215.604 270.339 216.329 269.272C217.076 268.205 217.993 267.245 219.081 266.392C220.19 265.517 221.502 264.856 223.017 264.408C223.23 264.344 223.433 264.312 223.625 264.312C224.052 264.312 224.425 264.429 224.745 264.664C225.086 264.877 225.257 265.272 225.257 265.848C225.257 266.232 225.129 266.573 224.873 266.872C224.617 267.149 224.276 267.352 223.849 267.48C223.081 267.736 222.313 268.12 221.545 268.632C220.777 269.144 220.062 269.752 219.401 270.456C218.74 271.16 218.174 271.949 217.705 272.824C217.257 273.677 216.926 274.573 216.713 275.512L215.913 275.64C216.233 275.149 216.638 274.68 217.129 274.232C217.641 273.763 218.238 273.379 218.921 273.08C219.604 272.76 220.382 272.6 221.257 272.6C222.132 272.6 222.974 272.792 223.785 273.176C224.596 273.56 225.321 274.093 225.961 274.776C226.622 275.459 227.134 276.248 227.497 277.144C227.881 278.04 228.073 278.989 228.073 279.992C228.073 281.315 227.742 282.541 227.081 283.672C226.441 284.781 225.566 285.667 224.457 286.328C223.369 286.989 222.142 287.32 220.777 287.32ZM220.745 284.344C221.534 284.344 222.238 284.163 222.857 283.8C223.476 283.416 223.966 282.893 224.329 282.232C224.692 281.571 224.873 280.824 224.873 279.992C224.873 279.16 224.702 278.413 224.361 277.752C224.02 277.091 223.54 276.557 222.921 276.152C222.324 275.747 221.62 275.544 220.809 275.544C219.977 275.544 219.241 275.747 218.601 276.152C217.961 276.557 217.46 277.101 217.097 277.784C216.734 278.445 216.553 279.192 216.553 280.024C216.553 280.792 216.734 281.517 217.097 282.2C217.46 282.861 217.95 283.384 218.569 283.768C219.209 284.152 219.934 284.344 220.745 284.344ZM238.308 287.32C237.114 287.32 236.047 287.085 235.108 286.616C234.191 286.147 233.412 285.507 232.772 284.696C232.154 283.885 231.674 282.979 231.332 281.976C231.012 280.952 230.852 279.907 230.852 278.84C230.852 278.008 230.948 277.059 231.14 275.992C231.332 274.904 231.652 273.784 232.1 272.632C232.548 271.459 233.135 270.339 233.86 269.272C234.607 268.205 235.524 267.245 236.612 266.392C237.722 265.517 239.034 264.856 240.548 264.408C240.762 264.344 240.964 264.312 241.156 264.312C241.583 264.312 241.956 264.429 242.276 264.664C242.618 264.877 242.788 265.272 242.788 265.848C242.788 266.232 242.66 266.573 242.404 266.872C242.148 267.149 241.807 267.352 241.38 267.48C240.612 267.736 239.844 268.12 239.076 268.632C238.308 269.144 237.594 269.752 236.932 270.456C236.271 271.16 235.706 271.949 235.236 272.824C234.788 273.677 234.458 274.573 234.244 275.512L233.444 275.64C233.764 275.149 234.17 274.68 234.66 274.232C235.172 273.763 235.77 273.379 236.452 273.08C237.135 272.76 237.914 272.6 238.788 272.6C239.663 272.6 240.506 272.792 241.316 273.176C242.127 273.56 242.852 274.093 243.492 274.776C244.154 275.459 244.666 276.248 245.028 277.144C245.412 278.04 245.604 278.989 245.604 279.992C245.604 281.315 245.274 282.541 244.612 283.672C243.972 284.781 243.098 285.667 241.988 286.328C240.9 286.989 239.674 287.32 238.308 287.32ZM238.276 284.344C239.066 284.344 239.77 284.163 240.388 283.8C241.007 283.416 241.498 282.893 241.86 282.232C242.223 281.571 242.404 280.824 242.404 279.992C242.404 279.16 242.234 278.413 241.892 277.752C241.551 277.091 241.071 276.557 240.452 276.152C239.855 275.747 239.151 275.544 238.34 275.544C237.508 275.544 236.772 275.747 236.132 276.152C235.492 276.557 234.991 277.101 234.628 277.784C234.266 278.445 234.084 279.192 234.084 280.024C234.084 280.792 234.266 281.517 234.628 282.2C234.991 282.861 235.482 283.384 236.1 283.768C236.74 284.152 237.466 284.344 238.276 284.344Z" fill="black"/>
<path d="M122.96 404C122.491 404 122.117 403.819 121.84 403.456C121.584 403.093 121.488 402.656 121.552 402.144L124.88 382.784C124.944 382.421 125.104 382.133 125.36 381.92C125.616 381.707 125.915 381.6 126.256 381.6C126.747 381.6 127.131 381.781 127.408 382.144C127.685 382.507 127.781 382.944 127.696 383.456L124.368 402.816C124.325 403.157 124.165 403.445 123.888 403.68C123.632 403.893 123.323 404 122.96 404ZM121.744 389.696C121.317 389.696 120.955 389.557 120.656 389.28C120.379 388.981 120.24 388.619 120.24 388.192C120.24 387.787 120.379 387.456 120.656 387.2C120.955 386.944 121.317 386.816 121.744 386.816H137.232C137.659 386.816 138.011 386.965 138.288 387.264C138.587 387.541 138.736 387.893 138.736 388.32C138.736 388.725 138.587 389.056 138.288 389.312C138.011 389.568 137.659 389.696 137.232 389.696H121.744ZM131.504 404C131.013 404 130.629 403.819 130.352 403.456C130.075 403.093 129.979 402.656 130.064 402.144L133.392 382.784C133.456 382.421 133.616 382.133 133.872 381.92C134.128 381.707 134.437 381.6 134.8 381.6C135.291 381.6 135.664 381.781 135.92 382.144C136.197 382.507 136.293 382.944 136.208 383.456L132.88 402.816C132.837 403.157 132.688 403.445 132.432 403.68C132.176 403.893 131.867 404 131.504 404ZM120.528 398.624C120.101 398.624 119.739 398.485 119.44 398.208C119.163 397.909 119.024 397.557 119.024 397.152C119.024 396.747 119.163 396.416 119.44 396.16C119.739 395.904 120.101 395.776 120.528 395.776H136.048C136.475 395.776 136.827 395.915 137.104 396.192C137.403 396.469 137.552 396.821 137.552 397.248C137.552 397.653 137.403 397.984 137.104 398.24C136.827 398.496 136.475 398.624 136.048 398.624H120.528ZM145.926 404.128C145.478 404.128 145.083 403.989 144.742 403.712C144.422 403.413 144.262 403.04 144.262 402.592C144.262 402.357 144.315 402.112 144.422 401.856L152.486 384.032L152.838 384.736H143.046C142.619 384.736 142.257 384.597 141.958 384.32C141.681 384.021 141.542 383.659 141.542 383.232C141.542 382.827 141.681 382.485 141.958 382.208C142.257 381.931 142.619 381.792 143.046 381.792H154.406C154.875 381.792 155.27 381.941 155.59 382.24C155.931 382.517 156.102 382.88 156.102 383.328C156.102 383.584 156.049 383.829 155.942 384.064L147.398 403.104C147.27 403.424 147.067 403.68 146.79 403.872C146.513 404.043 146.225 404.128 145.926 404.128ZM165.769 404C165.279 404 164.873 403.851 164.553 403.552C164.233 403.232 164.073 402.837 164.073 402.368V385.216L164.489 385.792L161.513 387.872C161.257 388.085 160.948 388.192 160.585 388.192C160.159 388.192 159.775 388.032 159.433 387.712C159.113 387.371 158.953 386.976 158.953 386.528C158.953 385.973 159.231 385.515 159.785 385.152L164.649 381.92C164.841 381.792 165.044 381.707 165.257 381.664C165.492 381.621 165.705 381.6 165.897 381.6C166.388 381.6 166.783 381.76 167.081 382.08C167.38 382.379 167.529 382.763 167.529 383.232V402.368C167.529 402.837 167.359 403.232 167.017 403.552C166.697 403.851 166.281 404 165.769 404ZM182.659 392.672L182.563 392.096C183.353 392.416 184.046 392.864 184.643 393.44C185.241 393.995 185.699 394.624 186.019 395.328C186.361 396.032 186.531 396.768 186.531 397.536C186.531 398.731 186.201 399.829 185.539 400.832C184.899 401.813 184.025 402.603 182.915 403.2C181.827 403.776 180.611 404.064 179.267 404.064C177.902 404.064 176.665 403.776 175.555 403.2C174.467 402.603 173.593 401.813 172.931 400.832C172.291 399.829 171.971 398.731 171.971 397.536C171.971 396.576 172.174 395.733 172.579 395.008C172.985 394.283 173.497 393.675 174.115 393.184C174.734 392.693 175.363 392.288 176.003 391.968L175.779 392.672C175.246 392.437 174.723 392.117 174.211 391.712C173.721 391.285 173.315 390.752 172.995 390.112C172.675 389.472 172.515 388.736 172.515 387.904C172.515 386.731 172.814 385.675 173.411 384.736C174.009 383.776 174.819 383.019 175.843 382.464C176.867 381.888 178.009 381.6 179.267 381.6C180.526 381.6 181.657 381.888 182.659 382.464C183.662 383.019 184.462 383.776 185.059 384.736C185.657 385.675 185.955 386.731 185.955 387.904C185.955 388.8 185.785 389.568 185.443 390.208C185.102 390.827 184.675 391.339 184.163 391.744C183.651 392.149 183.15 392.459 182.659 392.672ZM175.715 387.968C175.715 388.629 175.875 389.216 176.195 389.728C176.515 390.24 176.942 390.645 177.475 390.944C178.009 391.243 178.606 391.392 179.267 391.392C179.907 391.392 180.494 391.243 181.027 390.944C181.561 390.645 181.977 390.24 182.275 389.728C182.595 389.216 182.755 388.629 182.755 387.968C182.755 386.965 182.425 386.144 181.763 385.504C181.102 384.864 180.27 384.544 179.267 384.544C178.222 384.544 177.369 384.864 176.707 385.504C176.046 386.144 175.715 386.965 175.715 387.968ZM179.267 401.12C180.419 401.12 181.379 400.779 182.147 400.096C182.937 399.392 183.331 398.528 183.331 397.504C183.331 396.8 183.15 396.171 182.787 395.616C182.425 395.061 181.934 394.624 181.315 394.304C180.697 393.984 180.014 393.824 179.267 393.824C178.521 393.824 177.838 393.984 177.219 394.304C176.601 394.624 176.11 395.061 175.747 395.616C175.385 396.171 175.203 396.8 175.203 397.504C175.203 398.528 175.587 399.392 176.355 400.096C177.123 400.779 178.094 401.12 179.267 401.12ZM192.257 404C191.745 404 191.329 403.851 191.009 403.552C190.71 403.232 190.561 402.837 190.561 402.368V383.232C190.561 382.763 190.721 382.379 191.041 382.08C191.361 381.76 191.745 381.6 192.193 381.6H203.009C203.478 381.6 203.862 381.749 204.161 382.048C204.481 382.347 204.641 382.72 204.641 383.168C204.641 383.573 204.481 383.925 204.161 384.224C203.862 384.523 203.478 384.672 203.009 384.672H193.665L193.889 384.352V391.488L193.697 391.104H201.569C202.038 391.104 202.422 391.253 202.721 391.552C203.041 391.851 203.201 392.224 203.201 392.672C203.201 393.077 203.041 393.429 202.721 393.728C202.422 394.027 202.038 394.176 201.569 394.176H193.633L193.889 393.92V402.368C193.889 402.837 193.729 403.232 193.409 403.552C193.089 403.851 192.705 404 192.257 404ZM214.992 381.216C216.187 381.216 217.243 381.451 218.16 381.92C219.099 382.389 219.877 383.029 220.496 383.84C221.136 384.629 221.616 385.536 221.936 386.56C222.277 387.563 222.448 388.608 222.448 389.696C222.448 390.528 222.352 391.488 222.16 392.576C221.968 393.643 221.648 394.763 221.2 395.936C220.752 397.109 220.155 398.24 219.408 399.328C218.683 400.416 217.765 401.397 216.656 402.272C215.568 403.125 214.267 403.787 212.752 404.256C212.539 404.299 212.336 404.32 212.144 404.32C211.717 404.32 211.333 404.203 210.992 403.968C210.672 403.733 210.512 403.349 210.512 402.816C210.512 402.411 210.64 402.069 210.896 401.792C211.152 401.515 211.493 401.312 211.92 401.184C212.965 400.8 213.989 400.213 214.992 399.424C215.995 398.613 216.859 397.664 217.584 396.576C218.309 395.467 218.8 394.283 219.056 393.024L219.856 392.896C219.536 393.344 219.131 393.803 218.64 394.272C218.149 394.741 217.563 395.136 216.88 395.456C216.197 395.755 215.408 395.904 214.512 395.904C213.125 395.904 211.92 395.595 210.896 394.976C209.872 394.336 209.083 393.461 208.528 392.352C207.973 391.243 207.696 389.973 207.696 388.544C207.696 387.221 208.016 386.005 208.656 384.896C209.317 383.787 210.192 382.901 211.28 382.24C212.389 381.557 213.627 381.216 214.992 381.216ZM215.024 384.16C214.235 384.16 213.531 384.352 212.912 384.736C212.293 385.12 211.803 385.643 211.44 386.304C211.077 386.965 210.896 387.712 210.896 388.544C210.896 389.376 211.056 390.133 211.376 390.816C211.696 391.477 212.165 392 212.784 392.384C213.403 392.768 214.128 392.96 214.96 392.96C215.792 392.96 216.528 392.768 217.168 392.384C217.808 391.979 218.309 391.435 218.672 390.752C219.035 390.069 219.216 389.323 219.216 388.512C219.216 387.701 219.035 386.976 218.672 386.336C218.309 385.675 217.819 385.152 217.2 384.768C216.581 384.363 215.856 384.16 215.024 384.16ZM233.086 381.216C234.28 381.216 235.336 381.451 236.254 381.92C237.192 382.389 237.971 383.029 238.59 383.84C239.23 384.629 239.71 385.536 240.03 386.56C240.371 387.563 240.542 388.608 240.542 389.696C240.542 390.528 240.446 391.488 240.254 392.576C240.062 393.643 239.742 394.763 239.294 395.936C238.846 397.109 238.248 398.24 237.502 399.328C236.776 400.416 235.859 401.397 234.75 402.272C233.662 403.125 232.36 403.787 230.846 404.256C230.632 404.299 230.43 404.32 230.238 404.32C229.811 404.32 229.427 404.203 229.086 403.968C228.766 403.733 228.606 403.349 228.606 402.816C228.606 402.411 228.734 402.069 228.99 401.792C229.246 401.515 229.587 401.312 230.014 401.184C231.059 400.8 232.083 400.213 233.086 399.424C234.088 398.613 234.952 397.664 235.678 396.576C236.403 395.467 236.894 394.283 237.15 393.024L237.95 392.896C237.63 393.344 237.224 393.803 236.734 394.272C236.243 394.741 235.656 395.136 234.974 395.456C234.291 395.755 233.502 395.904 232.606 395.904C231.219 395.904 230.014 395.595 228.99 394.976C227.966 394.336 227.176 393.461 226.622 392.352C226.067 391.243 225.79 389.973 225.79 388.544C225.79 387.221 226.11 386.005 226.75 384.896C227.411 383.787 228.286 382.901 229.374 382.24C230.483 381.557 231.72 381.216 233.086 381.216ZM233.118 384.16C232.328 384.16 231.624 384.352 231.006 384.736C230.387 385.12 229.896 385.643 229.534 386.304C229.171 386.965 228.99 387.712 228.99 388.544C228.99 389.376 229.15 390.133 229.47 390.816C229.79 391.477 230.259 392 230.878 392.384C231.496 392.768 232.222 392.96 233.054 392.96C233.886 392.96 234.622 392.768 235.262 392.384C235.902 391.979 236.403 391.435 236.766 390.752C237.128 390.069 237.31 389.323 237.31 388.512C237.31 387.701 237.128 386.976 236.766 386.336C236.403 385.675 235.912 385.152 235.294 384.768C234.675 384.363 233.95 384.16 233.118 384.16Z" fill="black"/>
<path d="M122.96 521C122.491 521 122.117 520.819 121.84 520.456C121.584 520.093 121.488 519.656 121.552 519.144L124.88 499.784C124.944 499.421 125.104 499.133 125.36 498.92C125.616 498.707 125.915 498.6 126.256 498.6C126.747 498.6 127.131 498.781 127.408 499.144C127.685 499.507 127.781 499.944 127.696 500.456L124.368 519.816C124.325 520.157 124.165 520.445 123.888 520.68C123.632 520.893 123.323 521 122.96 521ZM121.744 506.696C121.317 506.696 120.955 506.557 120.656 506.28C120.379 505.981 120.24 505.619 120.24 505.192C120.24 504.787 120.379 504.456 120.656 504.2C120.955 503.944 121.317 503.816 121.744 503.816H137.232C137.659 503.816 138.011 503.965 138.288 504.264C138.587 504.541 138.736 504.893 138.736 505.32C138.736 505.725 138.587 506.056 138.288 506.312C138.011 506.568 137.659 506.696 137.232 506.696H121.744ZM131.504 521C131.013 521 130.629 520.819 130.352 520.456C130.075 520.093 129.979 519.656 130.064 519.144L133.392 499.784C133.456 499.421 133.616 499.133 133.872 498.92C134.128 498.707 134.437 498.6 134.8 498.6C135.291 498.6 135.664 498.781 135.92 499.144C136.197 499.507 136.293 499.944 136.208 500.456L132.88 519.816C132.837 520.157 132.688 520.445 132.432 520.68C132.176 520.893 131.867 521 131.504 521ZM120.528 515.624C120.101 515.624 119.739 515.485 119.44 515.208C119.163 514.909 119.024 514.557 119.024 514.152C119.024 513.747 119.163 513.416 119.44 513.16C119.739 512.904 120.101 512.776 120.528 512.776H136.048C136.475 512.776 136.827 512.915 137.104 513.192C137.403 513.469 137.552 513.821 137.552 514.248C137.552 514.653 137.403 514.984 137.104 515.24C136.827 515.496 136.475 515.624 136.048 515.624H120.528ZM144.038 521C143.526 521 143.11 520.851 142.79 520.552C142.491 520.232 142.342 519.837 142.342 519.368V500.232C142.342 499.763 142.502 499.379 142.822 499.08C143.142 498.76 143.526 498.6 143.974 498.6H154.79C155.259 498.6 155.643 498.749 155.942 499.048C156.262 499.347 156.422 499.72 156.422 500.168C156.422 500.573 156.262 500.925 155.942 501.224C155.643 501.523 155.259 501.672 154.79 501.672H145.446L145.67 501.352V508.488L145.478 508.104H153.35C153.819 508.104 154.203 508.253 154.502 508.552C154.822 508.851 154.982 509.224 154.982 509.672C154.982 510.077 154.822 510.429 154.502 510.728C154.203 511.027 153.819 511.176 153.35 511.176H145.414L145.67 510.92V519.368C145.67 519.837 145.51 520.232 145.19 520.552C144.87 520.851 144.486 521 144.038 521ZM169.909 509.672L169.813 509.096C170.603 509.416 171.296 509.864 171.893 510.44C172.491 510.995 172.949 511.624 173.269 512.328C173.611 513.032 173.781 513.768 173.781 514.536C173.781 515.731 173.451 516.829 172.789 517.832C172.149 518.813 171.275 519.603 170.165 520.2C169.077 520.776 167.861 521.064 166.517 521.064C165.152 521.064 163.915 520.776 162.805 520.2C161.717 519.603 160.843 518.813 160.181 517.832C159.541 516.829 159.221 515.731 159.221 514.536C159.221 513.576 159.424 512.733 159.829 512.008C160.235 511.283 160.747 510.675 161.365 510.184C161.984 509.693 162.613 509.288 163.253 508.968L163.029 509.672C162.496 509.437 161.973 509.117 161.461 508.712C160.971 508.285 160.565 507.752 160.245 507.112C159.925 506.472 159.765 505.736 159.765 504.904C159.765 503.731 160.064 502.675 160.661 501.736C161.259 500.776 162.069 500.019 163.093 499.464C164.117 498.888 165.259 498.6 166.517 498.6C167.776 498.6 168.907 498.888 169.909 499.464C170.912 500.019 171.712 500.776 172.309 501.736C172.907 502.675 173.205 503.731 173.205 504.904C173.205 505.8 173.035 506.568 172.693 507.208C172.352 507.827 171.925 508.339 171.413 508.744C170.901 509.149 170.4 509.459 169.909 509.672ZM162.965 504.968C162.965 505.629 163.125 506.216 163.445 506.728C163.765 507.24 164.192 507.645 164.725 507.944C165.259 508.243 165.856 508.392 166.517 508.392C167.157 508.392 167.744 508.243 168.277 507.944C168.811 507.645 169.227 507.24 169.525 506.728C169.845 506.216 170.005 505.629 170.005 504.968C170.005 503.965 169.675 503.144 169.013 502.504C168.352 501.864 167.52 501.544 166.517 501.544C165.472 501.544 164.619 501.864 163.957 502.504C163.296 503.144 162.965 503.965 162.965 504.968ZM166.517 518.12C167.669 518.12 168.629 517.779 169.397 517.096C170.187 516.392 170.581 515.528 170.581 514.504C170.581 513.8 170.4 513.171 170.037 512.616C169.675 512.061 169.184 511.624 168.565 511.304C167.947 510.984 167.264 510.824 166.517 510.824C165.771 510.824 165.088 510.984 164.469 511.304C163.851 511.624 163.36 512.061 162.997 512.616C162.635 513.171 162.453 513.8 162.453 514.504C162.453 515.528 162.837 516.392 163.605 517.096C164.373 517.779 165.344 518.12 166.517 518.12ZM179.507 521C178.995 521 178.579 520.851 178.259 520.552C177.96 520.232 177.811 519.837 177.811 519.368V500.232C177.811 499.763 177.971 499.379 178.291 499.08C178.611 498.76 178.995 498.6 179.443 498.6H190.259C190.728 498.6 191.112 498.749 191.411 499.048C191.731 499.347 191.891 499.72 191.891 500.168C191.891 500.573 191.731 500.925 191.411 501.224C191.112 501.523 190.728 501.672 190.259 501.672H180.915L181.139 501.352V508.488L180.947 508.104H188.819C189.288 508.104 189.672 508.253 189.971 508.552C190.291 508.851 190.451 509.224 190.451 509.672C190.451 510.077 190.291 510.429 189.971 510.728C189.672 511.027 189.288 511.176 188.819 511.176H180.883L181.139 510.92V519.368C181.139 519.837 180.979 520.232 180.659 520.552C180.339 520.851 179.955 521 179.507 521ZM202.242 498.216C203.437 498.216 204.493 498.451 205.41 498.92C206.349 499.389 207.127 500.029 207.746 500.84C208.386 501.629 208.866 502.536 209.186 503.56C209.527 504.563 209.698 505.608 209.698 506.696C209.698 507.528 209.602 508.488 209.41 509.576C209.218 510.643 208.898 511.763 208.45 512.936C208.002 514.109 207.405 515.24 206.658 516.328C205.933 517.416 205.015 518.397 203.906 519.272C202.818 520.125 201.517 520.787 200.002 521.256C199.789 521.299 199.586 521.32 199.394 521.32C198.967 521.32 198.583 521.203 198.242 520.968C197.922 520.733 197.762 520.349 197.762 519.816C197.762 519.411 197.89 519.069 198.146 518.792C198.402 518.515 198.743 518.312 199.17 518.184C200.215 517.8 201.239 517.213 202.242 516.424C203.245 515.613 204.109 514.664 204.834 513.576C205.559 512.467 206.05 511.283 206.306 510.024L207.106 509.896C206.786 510.344 206.381 510.803 205.89 511.272C205.399 511.741 204.813 512.136 204.13 512.456C203.447 512.755 202.658 512.904 201.762 512.904C200.375 512.904 199.17 512.595 198.146 511.976C197.122 511.336 196.333 510.461 195.778 509.352C195.223 508.243 194.946 506.973 194.946 505.544C194.946 504.221 195.266 503.005 195.906 501.896C196.567 500.787 197.442 499.901 198.53 499.24C199.639 498.557 200.877 498.216 202.242 498.216ZM202.274 501.16C201.485 501.16 200.781 501.352 200.162 501.736C199.543 502.12 199.053 502.643 198.69 503.304C198.327 503.965 198.146 504.712 198.146 505.544C198.146 506.376 198.306 507.133 198.626 507.816C198.946 508.477 199.415 509 200.034 509.384C200.653 509.768 201.378 509.96 202.21 509.96C203.042 509.96 203.778 509.768 204.418 509.384C205.058 508.979 205.559 508.435 205.922 507.752C206.285 507.069 206.466 506.323 206.466 505.512C206.466 504.701 206.285 503.976 205.922 503.336C205.559 502.675 205.069 502.152 204.45 501.768C203.831 501.363 203.106 501.16 202.274 501.16ZM215.632 521C215.12 521 214.704 520.851 214.384 520.552C214.085 520.232 213.936 519.837 213.936 519.368V500.232C213.936 499.763 214.096 499.379 214.416 499.08C214.736 498.76 215.12 498.6 215.568 498.6H226.384C226.853 498.6 227.237 498.749 227.536 499.048C227.856 499.347 228.016 499.72 228.016 500.168C228.016 500.573 227.856 500.925 227.536 501.224C227.237 501.523 226.853 501.672 226.384 501.672H217.04L217.264 501.352V508.488L217.072 508.104H224.944C225.413 508.104 225.797 508.253 226.096 508.552C226.416 508.851 226.576 509.224 226.576 509.672C226.576 510.077 226.416 510.429 226.096 510.728C225.797 511.027 225.413 511.176 224.944 511.176H217.008L217.264 510.92V519.368C217.264 519.837 217.104 520.232 216.784 520.552C216.464 520.851 216.08 521 215.632 521ZM238.936 502.76L231.736 520.04C231.608 520.381 231.416 520.648 231.16 520.84C230.904 521.032 230.616 521.128 230.296 521.128C229.826 521.128 229.474 521 229.24 520.744C229.005 520.467 228.877 520.125 228.856 519.72C228.856 519.571 228.888 519.4 228.952 519.208L237.08 499.56C237.229 499.197 237.442 498.92 237.72 498.728C238.018 498.536 238.338 498.451 238.68 498.472C239 498.472 239.298 498.568 239.576 498.76C239.853 498.952 240.056 499.219 240.184 499.56L248.216 518.92C248.301 519.133 248.344 519.347 248.344 519.56C248.344 520.029 248.184 520.413 247.864 520.712C247.565 520.989 247.224 521.128 246.84 521.128C246.52 521.128 246.221 521.032 245.944 520.84C245.688 520.627 245.496 520.36 245.368 520.04L238.104 502.856L238.936 502.76ZM233.016 515.496L234.456 512.424H243.512L244.056 515.496H233.016Z" fill="black"/>
<path d="M122.96 638C122.491 638 122.117 637.819 121.84 637.456C121.584 637.093 121.488 636.656 121.552 636.144L124.88 616.784C124.944 616.421 125.104 616.133 125.36 615.92C125.616 615.707 125.915 615.6 126.256 615.6C126.747 615.6 127.131 615.781 127.408 616.144C127.685 616.507 127.781 616.944 127.696 617.456L124.368 636.816C124.325 637.157 124.165 637.445 123.888 637.68C123.632 637.893 123.323 638 122.96 638ZM121.744 623.696C121.317 623.696 120.955 623.557 120.656 623.28C120.379 622.981 120.24 622.619 120.24 622.192C120.24 621.787 120.379 621.456 120.656 621.2C120.955 620.944 121.317 620.816 121.744 620.816H137.232C137.659 620.816 138.011 620.965 138.288 621.264C138.587 621.541 138.736 621.893 138.736 622.32C138.736 622.725 138.587 623.056 138.288 623.312C138.011 623.568 137.659 623.696 137.232 623.696H121.744ZM131.504 638C131.013 638 130.629 637.819 130.352 637.456C130.075 637.093 129.979 636.656 130.064 636.144L133.392 616.784C133.456 616.421 133.616 616.133 133.872 615.92C134.128 615.707 134.437 615.6 134.8 615.6C135.291 615.6 135.664 615.781 135.92 616.144C136.197 616.507 136.293 616.944 136.208 617.456L132.88 636.816C132.837 637.157 132.688 637.445 132.432 637.68C132.176 637.893 131.867 638 131.504 638ZM120.528 632.624C120.101 632.624 119.739 632.485 119.44 632.208C119.163 631.909 119.024 631.557 119.024 631.152C119.024 630.747 119.163 630.416 119.44 630.16C119.739 629.904 120.101 629.776 120.528 629.776H136.048C136.475 629.776 136.827 629.915 137.104 630.192C137.403 630.469 137.552 630.821 137.552 631.248C137.552 631.653 137.403 631.984 137.104 632.24C136.827 632.496 136.475 632.624 136.048 632.624H120.528ZM154.566 635.024C154.993 635.024 155.345 635.173 155.622 635.472C155.921 635.749 156.07 636.101 156.07 636.528C156.07 636.955 155.921 637.307 155.622 637.584C155.345 637.861 154.993 638 154.566 638H143.334C142.865 638 142.491 637.861 142.214 637.584C141.937 637.307 141.798 636.933 141.798 636.464C141.798 636.037 141.947 635.653 142.246 635.312L149.382 627.6C150.299 626.619 151.003 625.648 151.494 624.688C152.006 623.728 152.262 622.885 152.262 622.16C152.262 620.987 151.91 620.037 151.206 619.312C150.502 618.587 149.574 618.224 148.422 618.224C147.931 618.224 147.43 618.341 146.918 618.576C146.427 618.789 145.958 619.088 145.51 619.472C145.083 619.835 144.71 620.261 144.39 620.752C144.177 621.051 143.963 621.243 143.75 621.328C143.537 621.413 143.334 621.456 143.142 621.456C142.737 621.456 142.363 621.317 142.022 621.04C141.702 620.741 141.542 620.4 141.542 620.016C141.542 619.717 141.638 619.429 141.83 619.152C142.022 618.875 142.267 618.587 142.566 618.288C143.035 617.712 143.601 617.2 144.262 616.752C144.945 616.283 145.659 615.92 146.406 615.664C147.153 615.408 147.889 615.28 148.614 615.28C150.022 615.28 151.238 615.557 152.262 616.112C153.307 616.667 154.107 617.445 154.662 618.448C155.238 619.451 155.526 620.635 155.526 622C155.526 623.152 155.174 624.432 154.47 625.84C153.787 627.227 152.827 628.592 151.59 629.936L146.63 635.344L146.278 635.024H154.566ZM165.301 638C164.81 638 164.405 637.851 164.085 637.552C163.765 637.232 163.605 636.837 163.605 636.368V619.216L164.021 619.792L161.045 621.872C160.789 622.085 160.479 622.192 160.117 622.192C159.69 622.192 159.306 622.032 158.965 621.712C158.645 621.371 158.485 620.976 158.485 620.528C158.485 619.973 158.762 619.515 159.317 619.152L164.181 615.92C164.373 615.792 164.575 615.707 164.789 615.664C165.023 615.621 165.237 615.6 165.429 615.6C165.919 615.6 166.314 615.76 166.613 616.08C166.911 616.379 167.061 616.763 167.061 617.232V636.368C167.061 636.837 166.89 637.232 166.549 637.552C166.229 637.851 165.813 638 165.301 638ZM184.879 635.024C185.305 635.024 185.657 635.173 185.935 635.472C186.233 635.749 186.383 636.101 186.383 636.528C186.383 636.955 186.233 637.307 185.935 637.584C185.657 637.861 185.305 638 184.879 638H173.647C173.177 638 172.804 637.861 172.527 637.584C172.249 637.307 172.111 636.933 172.111 636.464C172.111 636.037 172.26 635.653 172.559 635.312L179.695 627.6C180.612 626.619 181.316 625.648 181.807 624.688C182.319 623.728 182.575 622.885 182.575 622.16C182.575 620.987 182.223 620.037 181.519 619.312C180.815 618.587 179.887 618.224 178.735 618.224C178.244 618.224 177.743 618.341 177.231 618.576C176.74 618.789 176.271 619.088 175.823 619.472C175.396 619.835 175.023 620.261 174.703 620.752C174.489 621.051 174.276 621.243 174.062 621.328C173.849 621.413 173.647 621.456 173.455 621.456C173.049 621.456 172.676 621.317 172.335 621.04C172.015 620.741 171.855 620.4 171.855 620.016C171.855 619.717 171.951 619.429 172.143 619.152C172.335 618.875 172.58 618.587 172.879 618.288C173.348 617.712 173.913 617.2 174.575 616.752C175.257 616.283 175.972 615.92 176.719 615.664C177.465 615.408 178.201 615.28 178.927 615.28C180.335 615.28 181.551 615.557 182.575 616.112C183.62 616.667 184.42 617.445 184.975 618.448C185.551 619.451 185.839 620.635 185.839 622C185.839 623.152 185.487 624.432 184.783 625.84C184.1 627.227 183.14 628.592 181.903 629.936L176.943 635.344L176.591 635.024H184.879ZM195.773 638.224C194.941 638.224 194.077 638.096 193.181 637.84C192.306 637.584 191.56 637.2 190.941 636.688C190.706 636.496 190.525 636.251 190.397 635.952C190.269 635.653 190.205 635.365 190.205 635.088C190.205 634.789 190.333 634.501 190.589 634.224C190.866 633.925 191.24 633.776 191.709 633.776C192.05 633.776 192.445 633.947 192.893 634.288C193.32 634.565 193.768 634.8 194.237 634.992C194.728 635.184 195.229 635.28 195.741 635.28C196.85 635.28 197.81 635.077 198.621 634.672C199.432 634.267 200.05 633.701 200.477 632.976C200.925 632.229 201.149 631.365 201.149 630.384C201.149 629.467 200.946 628.688 200.541 628.048C200.136 627.387 199.581 626.875 198.877 626.512C198.194 626.149 197.426 625.968 196.573 625.968C195.869 625.968 195.25 626.085 194.717 626.32C194.184 626.533 193.704 626.757 193.277 626.992C192.85 627.205 192.456 627.312 192.093 627.312C191.538 627.312 191.122 627.195 190.845 626.96C190.568 626.704 190.386 626.405 190.301 626.064C190.237 625.701 190.226 625.371 190.269 625.072L191.389 617.04C191.453 616.677 191.624 616.379 191.901 616.144C192.2 615.888 192.562 615.76 192.989 615.76H202.365C202.792 615.76 203.144 615.909 203.421 616.208C203.72 616.485 203.869 616.837 203.869 617.264C203.869 617.691 203.72 618.043 203.421 618.32C203.144 618.597 202.792 618.736 202.365 618.736H193.789L194.141 618.448L193.117 625.328L192.637 624.368C192.829 624.155 193.149 623.952 193.597 623.76C194.066 623.547 194.589 623.376 195.165 623.248C195.762 623.099 196.36 623.024 196.957 623.024C198.365 623.024 199.624 623.344 200.733 623.984C201.864 624.603 202.749 625.467 203.389 626.576C204.029 627.685 204.349 628.944 204.349 630.352C204.349 631.931 203.997 633.317 203.293 634.512C202.589 635.685 201.597 636.603 200.317 637.264C199.037 637.904 197.522 638.224 195.773 638.224ZM221.066 635.024C221.493 635.024 221.845 635.173 222.122 635.472C222.421 635.749 222.57 636.101 222.57 636.528C222.57 636.955 222.421 637.307 222.122 637.584C221.845 637.861 221.493 638 221.066 638H209.834C209.365 638 208.991 637.861 208.714 637.584C208.437 637.307 208.298 636.933 208.298 636.464C208.298 636.037 208.447 635.653 208.746 635.312L215.882 627.6C216.799 626.619 217.503 625.648 217.994 624.688C218.506 623.728 218.762 622.885 218.762 622.16C218.762 620.987 218.41 620.037 217.706 619.312C217.002 618.587 216.074 618.224 214.922 618.224C214.431 618.224 213.93 618.341 213.418 618.576C212.927 618.789 212.458 619.088 212.01 619.472C211.583 619.835 211.21 620.261 210.89 620.752C210.677 621.051 210.463 621.243 210.25 621.328C210.037 621.413 209.834 621.456 209.642 621.456C209.237 621.456 208.863 621.317 208.522 621.04C208.202 620.741 208.042 620.4 208.042 620.016C208.042 619.717 208.138 619.429 208.33 619.152C208.522 618.875 208.767 618.587 209.066 618.288C209.535 617.712 210.101 617.2 210.762 616.752C211.445 616.283 212.159 615.92 212.906 615.664C213.653 615.408 214.389 615.28 215.114 615.28C216.522 615.28 217.738 615.557 218.762 616.112C219.807 616.667 220.607 617.445 221.162 618.448C221.738 619.451 222.026 620.635 222.026 622C222.026 623.152 221.674 624.432 220.97 625.84C220.287 627.227 219.327 628.592 218.09 629.936L213.13 635.344L212.778 635.024H221.066ZM233.305 615.216C234.499 615.216 235.555 615.451 236.473 615.92C237.411 616.389 238.19 617.029 238.809 617.84C239.449 618.629 239.929 619.536 240.249 620.56C240.59 621.563 240.76 622.608 240.76 623.696C240.76 624.528 240.664 625.488 240.472 626.576C240.281 627.643 239.961 628.763 239.513 629.936C239.065 631.109 238.467 632.24 237.721 633.328C236.995 634.416 236.078 635.397 234.969 636.272C233.881 637.125 232.579 637.787 231.065 638.256C230.851 638.299 230.649 638.32 230.457 638.32C230.03 638.32 229.646 638.203 229.305 637.968C228.985 637.733 228.825 637.349 228.825 636.816C228.825 636.411 228.953 636.069 229.209 635.792C229.465 635.515 229.806 635.312 230.233 635.184C231.278 634.8 232.302 634.213 233.305 633.424C234.307 632.613 235.171 631.664 235.897 630.576C236.622 629.467 237.113 628.283 237.369 627.024L238.169 626.896C237.849 627.344 237.443 627.803 236.953 628.272C236.462 628.741 235.875 629.136 235.193 629.456C234.51 629.755 233.721 629.904 232.825 629.904C231.438 629.904 230.233 629.595 229.209 628.976C228.185 628.336 227.395 627.461 226.841 626.352C226.286 625.243 226.009 623.973 226.009 622.544C226.009 621.221 226.329 620.005 226.969 618.896C227.63 617.787 228.505 616.901 229.593 616.24C230.702 615.557 231.939 615.216 233.305 615.216ZM233.337 618.16C232.547 618.16 231.843 618.352 231.225 618.736C230.606 619.12 230.115 619.643 229.753 620.304C229.39 620.965 229.209 621.712 229.209 622.544C229.209 623.376 229.369 624.133 229.689 624.816C230.009 625.477 230.478 626 231.097 626.384C231.715 626.768 232.441 626.96 233.273 626.96C234.105 626.96 234.841 626.768 235.481 626.384C236.121 625.979 236.622 625.435 236.985 624.752C237.347 624.069 237.529 623.323 237.529 622.512C237.529 621.701 237.347 620.976 236.985 620.336C236.622 619.675 236.131 619.152 235.513 618.768C234.894 618.363 234.169 618.16 233.337 618.16Z" fill="black"/>
</svg>
