<svg width="543" height="30" viewBox="0 0 543 30" fill="none" xmlns="http://www.w3.org/2000/svg">
<path d="M243.096 3.74756C243.106 3.74758 243.118 3.74761 243.13 3.74764L243.263 3.74805C244.804 3.75371 252.613 3.81032 254.719 4.3764C256.01 4.72261 257.026 5.7429 257.371 7.03803C257.561 7.74958 257.694 8.69533 257.786 9.66799L257.804 9.86282C257.818 10.0254 257.832 10.1883 257.844 10.3506L257.859 10.5451C257.982 12.259 257.996 13.8629 257.998 14.2138L257.998 14.2611C257.998 14.265 257.998 14.2714 257.998 14.2714V14.2979C257.998 14.2979 257.998 14.3043 257.998 14.3081L257.998 14.3555C257.996 14.7196 257.981 16.4332 257.844 18.2188L257.829 18.4138L257.812 18.609C257.72 19.6826 257.58 20.7486 257.371 21.5313C257.026 22.8264 256.01 23.8469 254.719 24.1929C252.543 24.7781 244.277 24.819 243.13 24.8219L243.042 24.8221C243.035 24.8221 243.028 24.8221 243.023 24.8221L242.987 24.8221C242.987 24.8221 242.979 24.8221 242.973 24.8221L242.866 24.8219C242.286 24.8204 239.888 24.8093 237.377 24.723L237.056 24.7116C237.003 24.7096 236.949 24.7076 236.896 24.7056L236.574 24.6929L236.253 24.6793C234.173 24.588 232.19 24.4383 231.277 24.1929C229.986 23.8469 228.97 22.8264 228.625 21.5313C228.416 20.7486 228.277 19.6826 228.184 18.609L228.167 18.4138L228.152 18.2188C228.02 16.4981 228.001 14.8444 227.998 14.4005L227.998 14.337C227.998 14.3312 227.998 14.326 227.998 14.3212V14.2481C227.998 14.2433 227.998 14.238 227.998 14.2323L227.998 14.1688C228.001 13.7668 228.017 12.3725 228.118 10.8348L228.131 10.642C228.133 10.6097 228.135 10.5774 228.138 10.5451L228.152 10.3506C228.164 10.1883 228.178 10.0254 228.192 9.86282L228.21 9.66799C228.303 8.69533 228.435 7.74958 228.625 7.03803C228.97 5.7429 229.986 4.72261 231.277 4.3764C232.19 4.1311 234.173 3.98146 236.253 3.89019L236.574 3.8766L236.896 3.8639C236.949 3.86186 237.003 3.85985 237.056 3.85788L237.377 3.84646C239.728 3.76576 241.98 3.75082 242.733 3.74805L242.866 3.74764C242.878 3.74761 242.89 3.74758 242.9 3.74756H243.096ZM239.998 9.76855V18.8007L247.792 14.2849L239.998 9.76855Z" fill="#AD0000"/>
<path d="M123.424 28.125C134.744 28.125 140.939 18.7445 140.939 10.6235C140.939 10.3596 140.939 10.0957 140.927 9.83175C142.127 8.96807 143.172 7.87648 144 6.64093C142.896 7.13275 141.707 7.45663 140.459 7.61257C141.731 6.85685 142.703 5.6453 143.172 4.20583C141.983 4.91357 140.663 5.41738 139.258 5.69328C138.13 4.49372 136.533 3.75 134.768 3.75C131.371 3.75 128.61 6.50898 128.61 9.90373C128.61 10.3835 128.67 10.8514 128.766 11.3072C123.652 11.0553 119.114 8.59621 116.077 4.87758C115.549 5.78925 115.248 6.84486 115.248 7.97244C115.248 10.1077 116.341 11.991 117.986 13.0945C116.977 13.0586 116.029 12.7827 115.2 12.3268C115.2 12.3508 115.2 12.3748 115.2 12.4108C115.2 15.3857 117.325 17.8808 120.134 18.4446C119.618 18.5885 119.078 18.6605 118.514 18.6605C118.118 18.6605 117.733 18.6245 117.361 18.5525C118.142 20.9996 120.423 22.775 123.112 22.823C120.999 24.4783 118.346 25.462 115.465 25.462C114.972 25.462 114.48 25.438 114 25.378C116.713 27.1054 119.954 28.125 123.424 28.125Z" fill="#AD0000"/>
<path d="M201 15.091C201 6.75581 194.284 -0.0012207 185.999 -0.0012207C177.714 -0.0012207 170.998 6.75581 170.998 15.091C170.998 22.624 176.484 28.8677 183.655 30V19.4536H179.846V15.091H183.655V11.766C183.655 7.98353 185.895 5.89419 189.321 5.89419C190.962 5.89419 192.679 6.18896 192.679 6.18896V9.90308H190.787C188.924 9.90308 188.343 11.0664 188.343 12.26V15.091H192.503L191.838 19.4536H188.343V30C195.514 28.8677 201 22.624 201 15.091Z" fill="#AD0000"/>
<path d="M72.0014 0C67.9276 0 67.4164 0.017813 65.8163 0.0906262C64.2195 0.163752 63.1294 0.416567 62.1757 0.787508C61.1891 1.17064 60.3522 1.68314 59.5185 2.51721C58.6841 3.35097 58.1716 4.18786 57.7872 5.17412C57.4153 6.12819 57.1622 7.21851 57.0903 8.81478C57.0188 10.4148 57 10.9264 57 15.0002C57 19.0739 57.0181 19.5836 57.0906 21.1837C57.1641 22.7806 57.4169 23.8706 57.7875 24.8243C58.1709 25.8109 58.6835 26.6478 59.5175 27.4815C60.351 28.3159 61.1879 28.8297 62.1738 29.2128C63.1282 29.5837 64.2185 29.8366 65.8151 29.9097C67.4151 29.9825 67.9261 30.0003 71.9995 30.0003C76.0736 30.0003 76.5833 29.9825 78.1833 29.9097C79.7802 29.8366 80.8715 29.5837 81.8259 29.2128C82.8121 28.8297 83.6478 28.3159 84.4812 27.4815C85.3156 26.6478 85.8281 25.8109 86.2125 24.8246C86.5812 23.8706 86.8344 22.7802 86.9094 21.184C86.9812 19.584 87 19.0739 87 15.0002C87 10.9264 86.9812 10.4151 86.9094 8.81509C86.8344 7.2182 86.5812 6.12819 86.2125 5.17443C85.8281 4.18786 85.3156 3.35097 84.4812 2.51721C83.6468 1.68283 82.8125 1.17032 81.8249 0.787508C80.8687 0.416567 79.778 0.163752 78.1812 0.0906262C76.5811 0.017813 76.0718 0 71.9967 0H72.0014ZM70.6558 2.70315C71.0551 2.70253 71.5008 2.70315 72.0014 2.70315C76.0064 2.70315 76.4811 2.71753 78.0627 2.7894C79.5252 2.85628 80.319 3.10066 80.8477 3.30597C81.5478 3.57785 82.0468 3.90285 82.5715 4.42786C83.0965 4.95286 83.4215 5.45287 83.694 6.15288C83.8993 6.68101 84.144 7.47476 84.2106 8.93728C84.2825 10.5185 84.2981 10.9936 84.2981 14.9967C84.2981 18.9999 84.2825 19.4749 84.2106 21.0562C84.1437 22.5187 83.8993 23.3124 83.694 23.8406C83.4221 24.5406 83.0965 25.039 82.5715 25.5637C82.0465 26.0887 81.5481 26.4137 80.8477 26.6856C80.3196 26.8918 79.5252 27.1356 78.0627 27.2025C76.4815 27.2743 76.0064 27.29 72.0014 27.29C67.9961 27.29 67.5214 27.2743 65.9401 27.2025C64.4776 27.135 63.6838 26.8906 63.1548 26.6853C62.4547 26.4134 61.9547 26.0884 61.4297 25.5634C60.9047 25.0384 60.5797 24.5396 60.3072 23.8393C60.1019 23.3112 59.8572 22.5174 59.7907 21.0549C59.7188 19.4736 59.7044 18.9986 59.7044 14.993C59.7044 10.9873 59.7188 10.5148 59.7907 8.93353C59.8575 7.47102 60.1019 6.67726 60.3072 6.1485C60.5791 5.44849 60.9047 4.94849 61.4297 4.42348C61.9547 3.89848 62.4547 3.57347 63.1548 3.30097C63.6835 3.09472 64.4776 2.85097 65.9401 2.78378C67.3239 2.72128 67.8601 2.70253 70.6558 2.6994V2.70315ZM80.0084 5.1938C79.0146 5.1938 78.2083 5.99912 78.2083 6.9932C78.2083 7.98696 79.0146 8.79322 80.0084 8.79322C81.0021 8.79322 81.8084 7.98696 81.8084 6.9932C81.8084 5.99944 81.0021 5.19318 80.0084 5.19318V5.1938ZM72.0014 7.29695C67.7473 7.29695 64.2982 10.746 64.2982 15.0002C64.2982 19.2543 67.7473 22.7018 72.0014 22.7018C76.2555 22.7018 79.7034 19.2543 79.7034 15.0002C79.7034 10.746 76.2552 7.29695 72.0011 7.29695H72.0014ZM72.0014 10.0001C74.7627 10.0001 77.0015 12.2386 77.0015 15.0002C77.0015 17.7614 74.7627 20.0002 72.0014 20.0002C69.2398 20.0002 67.0014 17.7614 67.0014 15.0002C67.0014 12.2386 69.2398 10.0001 72.0014 10.0001V10.0001Z" fill="#AD0000"/>
<path d="M0 2.14901C0 0.962462 0.986273 0 2.20296 0H27.797C29.0137 0 30 0.962466 30 2.14901V27.851C30 29.0379 29.0137 30 27.797 30L2.20296 30C0.986273 30 0 29.0379 0 27.851V2.14901ZM9.26884 25.1131V11.5664H4.76617V25.1131H9.26884ZM7.01748 9.71686C8.58765 9.71686 9.56495 8.67662 9.56495 7.37663C9.53569 6.04738 8.58766 5.03601 7.04727 5.03601C5.50704 5.03601 4.5 6.04738 4.5 7.37663C4.5 8.67662 5.47709 9.71686 6.98814 9.71686H7.01748ZM16.2214 25.1131V17.5481C16.2214 17.1432 16.2506 16.7387 16.3695 16.4493C16.695 15.6404 17.4359 14.8026 18.6798 14.8026C20.3091 14.8026 20.9608 16.0448 20.9608 17.8659V25.1131H25.4631V17.3456C25.4631 13.1847 23.2417 11.2485 20.2793 11.2485C17.8908 11.2485 16.8199 12.5613 16.2215 13.4844V13.531H16.1914C16.2013 13.5156 16.2113 13.5 16.2215 13.4844V11.5664H11.7189C11.778 12.8376 11.7189 25.1131 11.7189 25.1131H16.2214Z" fill="#AD0000"/>
<path fill-rule="evenodd" clip-rule="evenodd" d="M294.375 21.5625C294.375 21.0447 294.795 20.625 295.312 20.625H312.188C312.705 20.625 313.125 21.0447 313.125 21.5625C313.125 22.0803 312.705 22.5 312.188 22.5H295.312C294.795 22.5 294.375 22.0803 294.375 21.5625Z" fill="#AD0000"/>
<path fill-rule="evenodd" clip-rule="evenodd" d="M294.375 14.0625C294.375 13.5447 294.795 13.125 295.312 13.125H312.188C312.705 13.125 313.125 13.5447 313.125 14.0625C313.125 14.5803 312.705 15 312.188 15H295.312C294.795 15 294.375 14.5803 294.375 14.0625Z" fill="#AD0000"/>
<path fill-rule="evenodd" clip-rule="evenodd" d="M294.375 6.5625C294.375 6.04473 294.795 5.625 295.312 5.625H312.188C312.705 5.625 313.125 6.04473 313.125 6.5625C313.125 7.08027 312.705 7.5 312.188 7.5H295.312C294.795 7.5 294.375 7.08027 294.375 6.5625Z" fill="#AD0000"/>
<path d="M288.212 22.2473V21.3574H288.75C289.156 21.3574 289.431 21.1011 289.431 20.7642C289.431 20.4163 289.135 20.1819 288.754 20.1819C288.336 20.1819 288.065 20.4675 288.054 20.7642H286.948C286.978 19.8889 287.648 19.2883 288.798 19.2883C289.9 19.2847 290.585 19.834 290.592 20.6067C290.599 21.3171 290.024 21.665 289.669 21.72V21.7822C290.145 21.8262 290.728 22.1851 290.735 22.9651C290.742 23.9648 289.794 24.4666 288.765 24.4666C287.534 24.4666 286.89 23.7708 286.875 22.9761H287.966C287.981 23.3093 288.314 23.551 288.757 23.5547C289.233 23.5547 289.552 23.2837 289.548 22.8992C289.545 22.533 289.259 22.2473 288.772 22.2473H288.212Z" fill="#AD0000"/>
<path d="M288.204 13.4363H287.073V13.3704C287.073 12.605 287.626 11.7883 288.867 11.7883C289.962 11.7883 290.669 12.3999 290.669 13.2056C290.669 13.9343 290.186 14.3628 289.775 14.7949L288.768 15.8679V15.9229H290.746V16.875H287.142V16.1353L288.937 14.2786C289.197 14.0112 289.486 13.7073 289.486 13.3264C289.486 12.9895 289.211 12.7258 288.845 12.7258C288.442 12.7258 288.204 13.0261 288.204 13.3594C288.204 13.385 288.204 13.418 288.204 13.4363Z" fill="#AD0000"/>
<path d="M289.807 9.375H288.617V5.48218H288.558L287.438 6.26953V5.20752L288.617 4.37622H289.807V9.375Z" fill="#AD0000"/>
<path fill-rule="evenodd" clip-rule="evenodd" d="M408.375 21.5625C408.375 21.0447 408.795 20.625 409.312 20.625H426.188C426.705 20.625 427.125 21.0447 427.125 21.5625C427.125 22.0803 426.705 22.5 426.188 22.5H409.312C408.795 22.5 408.375 22.0803 408.375 21.5625Z" fill="#AD0000"/>
<path fill-rule="evenodd" clip-rule="evenodd" d="M408.375 14.0625C408.375 13.5447 408.795 13.125 409.312 13.125H426.188C426.705 13.125 427.125 13.5447 427.125 14.0625C427.125 14.5803 426.705 15 426.188 15H409.312C408.795 15 408.375 14.5803 408.375 14.0625Z" fill="#AD0000"/>
<path fill-rule="evenodd" clip-rule="evenodd" d="M408.375 6.5625C408.375 6.04473 408.795 5.625 409.312 5.625H426.188C426.705 5.625 427.125 6.04473 427.125 6.5625C427.125 7.08027 426.705 7.5 426.188 7.5H409.312C408.795 7.5 408.375 7.08027 408.375 6.5625Z" fill="#AD0000"/>
<path fill-rule="evenodd" clip-rule="evenodd" d="M406.225 4.02459C406.592 4.3907 406.592 4.9843 406.225 5.35041L403.413 8.16291C403.047 8.52903 402.453 8.52903 402.087 8.16291L401.15 7.22541C400.783 6.8593 400.783 6.2657 401.15 5.89959C401.516 5.53347 402.109 5.53347 402.475 5.89959L402.75 6.17417L404.9 4.02459C405.266 3.65847 405.859 3.65847 406.225 4.02459Z" fill="#AD0000"/>
<path fill-rule="evenodd" clip-rule="evenodd" d="M406.225 11.5246C406.592 11.8907 406.592 12.4843 406.225 12.8504L403.413 15.6629C403.047 16.029 402.453 16.029 402.087 15.6629L401.15 14.7254C400.783 14.3593 400.783 13.7657 401.15 13.3996C401.516 13.0335 402.109 13.0335 402.475 13.3996L402.75 13.6742L404.9 11.5246C405.266 11.1585 405.859 11.1585 406.225 11.5246Z" fill="#AD0000"/>
<path fill-rule="evenodd" clip-rule="evenodd" d="M406.225 19.0246C406.592 19.3907 406.592 19.9843 406.225 20.3504L403.413 23.1629C403.047 23.529 402.453 23.529 402.087 23.1629L401.15 22.2254C400.783 21.8593 400.783 21.2657 401.15 20.8996C401.516 20.5335 402.109 20.5335 402.475 20.8996L402.75 21.1742L404.9 19.0246C405.266 18.6585 405.859 18.6585 406.225 19.0246Z" fill="#AD0000"/>
<g clip-path="url(#clip0_92_1173)">
<path d="M476.625 11.25C476.625 14.3566 474.107 16.875 471 16.875C467.893 16.875 465.375 14.3566 465.375 11.25C465.375 8.1434 467.893 5.625 471 5.625C474.107 5.625 476.625 8.1434 476.625 11.25Z" fill="#AD0000"/>
<path fill-rule="evenodd" clip-rule="evenodd" d="M456 15C456 6.71573 462.716 0 471 0C479.284 0 486 6.71573 486 15C486 23.2843 479.284 30 471 30C462.716 30 456 23.2843 456 15ZM471 1.875C463.751 1.875 457.875 7.75126 457.875 15C457.875 18.1002 458.95 20.9493 460.747 23.1951C462.08 21.0473 465.009 18.75 471 18.75C476.991 18.75 479.92 21.0473 481.253 23.1951C483.05 20.9493 484.125 18.1002 484.125 15C484.125 7.75126 478.249 1.875 471 1.875Z" fill="#AD0000"/>
</g>
<g clip-path="url(#clip1_92_1173)">
<path d="M357 28.125C349.751 28.125 343.875 22.2487 343.875 15C343.875 7.75126 349.751 1.875 357 1.875C364.249 1.875 370.125 7.75126 370.125 15C370.125 22.2487 364.249 28.125 357 28.125ZM357 30C365.284 30 372 23.2843 372 15C372 6.71573 365.284 0 357 0C348.716 0 342 6.71573 342 15C342 23.2843 348.716 30 357 30Z" fill="#AD0000"/>
<path d="M351.853 10.849C351.839 11.1044 352.05 11.3113 352.306 11.3113H353.852C354.11 11.3113 354.316 11.1002 354.351 10.8437C354.518 9.61346 355.362 8.71674 356.867 8.71674C358.153 8.71674 359.331 9.35944 359.331 10.9067C359.331 12.0969 358.629 12.6443 357.522 13.4775C356.26 14.3939 355.261 15.4651 355.332 17.2028L355.338 17.6093C355.341 17.8656 355.55 18.0716 355.806 18.0716H357.327C357.586 18.0716 357.796 17.8617 357.796 17.6028V17.4051C357.796 16.0602 358.307 15.6674 359.688 14.6201C360.831 13.7512 362.021 12.7872 362.021 10.7639C362.021 7.93121 359.629 6.5625 357.01 6.5625C354.634 6.5625 352.031 7.6699 351.853 10.849ZM354.773 21.6541C354.773 22.6538 355.57 23.3917 356.665 23.3917C357.808 23.3917 358.593 22.6538 358.593 21.6541C358.593 20.6186 357.808 19.8926 356.665 19.8926C355.57 19.8926 354.773 20.6186 354.773 21.6541Z" fill="#AD0000"/>
</g>
<g clip-path="url(#clip2_92_1173)">
<path d="M528 6.5625C528 6.04473 527.58 5.625 527.062 5.625C526.545 5.625 526.125 6.04473 526.125 6.5625V16.875C526.125 17.2114 526.305 17.5221 526.597 17.689L533.16 21.439C533.609 21.6959 534.182 21.5397 534.439 21.0901C534.696 20.6406 534.54 20.0679 534.09 19.811L528 16.3309V6.5625Z" fill="#AD0000"/>
<path d="M528 30C536.284 30 543 23.2843 543 15C543 6.71573 536.284 0 528 0C519.716 0 513 6.71573 513 15C513 23.2843 519.716 30 528 30ZM541.125 15C541.125 22.2487 535.249 28.125 528 28.125C520.751 28.125 514.875 22.2487 514.875 15C514.875 7.75126 520.751 1.875 528 1.875C535.249 1.875 541.125 7.75126 541.125 15Z" fill="#AD0000"/>
</g>
<defs>
<clipPath id="clip0_92_1173">
<rect width="30" height="30" fill="white" transform="translate(456)"/>
</clipPath>
<clipPath id="clip1_92_1173">
<rect width="30" height="30" fill="white" transform="translate(342)"/>
</clipPath>
<clipPath id="clip2_92_1173">
<rect width="30" height="30" fill="white" transform="translate(513)"/>
</clipPath>
</defs>
</svg>
