<svg width="316" height="112" viewBox="0 0 316 112" fill="none" xmlns="http://www.w3.org/2000/svg">
<rect width="316" height="112" rx="10" fill="#C4D600"/>
<path d="M105.184 64V47.2H114.4C117.28 47.2 119.176 49.216 119.176 51.76C119.176 53.464 118.36 54.664 117.136 55.336C118.912 55.84 120.256 57.232 120.256 59.464C120.256 62.224 118.12 64 115.48 64H105.184ZM108.304 54.256H113.824C115.192 54.256 116.056 53.44 116.056 52.096C116.056 50.776 115.192 49.936 113.824 49.936H108.304V54.256ZM108.304 61.24H114.88C116.248 61.24 117.136 60.4 117.136 59.08C117.136 57.736 116.248 56.896 114.88 56.896H108.304V61.24ZM130.406 64.288C126.254 64.288 122.846 62.128 122.846 57.232V47.2H125.966V57.232C125.966 60.064 127.79 61.312 130.43 61.312C133.046 61.312 134.846 60.064 134.846 57.232V47.2H137.966V57.232C137.966 62.128 134.558 64.288 130.406 64.288ZM155.734 47.2V50.128H149.614V64H146.494V50.128H140.374V47.2H155.734ZM172.375 47.2V50.128H166.255V64H163.135V50.128H157.015V47.2H172.375ZM182.107 64.288C176.755 64.288 173.179 60.376 173.179 55.6C173.179 50.824 176.755 46.912 182.107 46.912C187.459 46.912 191.059 50.824 191.059 55.6C191.059 60.376 187.459 64.288 182.107 64.288ZM182.107 61.312C185.683 61.312 187.915 58.816 187.915 55.6C187.915 52.384 185.683 49.864 182.107 49.864C178.555 49.864 176.323 52.384 176.323 55.6C176.323 58.816 178.555 61.312 182.107 61.312ZM206.768 47.2H209.888V64H207.128L197.648 52.312V64H194.528V47.2H197.288L206.768 58.888V47.2Z" fill="black"/>
</svg>
