<svg width="422" height="30" viewBox="0 0 422 30" fill="none" xmlns="http://www.w3.org/2000/svg">
<path d="M121.424 28.125C132.744 28.125 138.939 18.7445 138.939 10.6235C138.939 10.3596 138.939 10.0957 138.927 9.83175C140.127 8.96807 141.172 7.87648 142 6.64093C140.896 7.13275 139.707 7.45663 138.459 7.61257C139.731 6.85685 140.703 5.6453 141.172 4.20583C139.983 4.91357 138.663 5.41738 137.258 5.69328C136.13 4.49372 134.533 3.75 132.768 3.75C129.371 3.75 126.61 6.50898 126.61 9.90373C126.61 10.3835 126.67 10.8514 126.766 11.3072C121.652 11.0553 117.114 8.59621 114.077 4.87758C113.549 5.78925 113.248 6.84486 113.248 7.97244C113.248 10.1077 114.341 11.991 115.986 13.0945C114.977 13.0586 114.029 12.7827 113.2 12.3268C113.2 12.3508 113.2 12.3748 113.2 12.4108C113.2 15.3857 115.325 17.8808 118.134 18.4446C117.618 18.5885 117.078 18.6605 116.514 18.6605C116.118 18.6605 115.733 18.6245 115.361 18.5525C116.142 20.9996 118.423 22.775 121.112 22.823C118.999 24.4783 116.346 25.462 113.465 25.462C112.972 25.462 112.48 25.438 112 25.378C114.713 27.1054 117.954 28.125 121.424 28.125Z" fill="#28334A"/>
<path d="M198 15.091C198 6.75581 191.284 -0.0012207 182.999 -0.0012207C174.714 -0.0012207 167.998 6.75581 167.998 15.091C167.998 22.624 173.484 28.8677 180.655 30V19.4536H176.846V15.091H180.655V11.766C180.655 7.98353 182.895 5.89419 186.321 5.89419C187.962 5.89419 189.679 6.18896 189.679 6.18896V9.90308H187.787C185.924 9.90308 185.343 11.0664 185.343 12.26V15.091H189.503L188.838 19.4536H185.343V30C192.514 28.8677 198 22.624 198 15.091Z" fill="#28334A"/>
<path d="M71.0014 0C66.9276 0 66.4164 0.017813 64.8163 0.0906262C63.2195 0.163752 62.1294 0.416567 61.1757 0.787508C60.1891 1.17064 59.3522 1.68314 58.5185 2.51721C57.6841 3.35097 57.1716 4.18786 56.7872 5.17412C56.4153 6.12819 56.1622 7.21851 56.0903 8.81478C56.0188 10.4148 56 10.9264 56 15.0002C56 19.0739 56.0181 19.5836 56.0906 21.1837C56.1641 22.7806 56.4169 23.8706 56.7875 24.8243C57.1709 25.8109 57.6835 26.6478 58.5175 27.4815C59.351 28.3159 60.1879 28.8297 61.1738 29.2128C62.1282 29.5837 63.2185 29.8366 64.8151 29.9097C66.4151 29.9825 66.9261 30.0003 70.9995 30.0003C75.0736 30.0003 75.5833 29.9825 77.1833 29.9097C78.7802 29.8366 79.8715 29.5837 80.8259 29.2128C81.8121 28.8297 82.6478 28.3159 83.4812 27.4815C84.3156 26.6478 84.8281 25.8109 85.2125 24.8246C85.5812 23.8706 85.8344 22.7802 85.9094 21.184C85.9812 19.584 86 19.0739 86 15.0002C86 10.9264 85.9812 10.4151 85.9094 8.81509C85.8344 7.2182 85.5812 6.12819 85.2125 5.17443C84.8281 4.18786 84.3156 3.35097 83.4812 2.51721C82.6468 1.68283 81.8125 1.17032 80.8249 0.787508C79.8687 0.416567 78.778 0.163752 77.1812 0.0906262C75.5811 0.017813 75.0718 0 70.9967 0H71.0014ZM69.6558 2.70315C70.0551 2.70253 70.5008 2.70315 71.0014 2.70315C75.0064 2.70315 75.4811 2.71753 77.0627 2.7894C78.5252 2.85628 79.319 3.10066 79.8477 3.30597C80.5478 3.57785 81.0468 3.90285 81.5715 4.42786C82.0965 4.95286 82.4215 5.45287 82.694 6.15288C82.8993 6.68101 83.144 7.47476 83.2106 8.93728C83.2825 10.5185 83.2981 10.9936 83.2981 14.9967C83.2981 18.9999 83.2825 19.4749 83.2106 21.0562C83.1437 22.5187 82.8993 23.3124 82.694 23.8406C82.4221 24.5406 82.0965 25.039 81.5715 25.5637C81.0465 26.0887 80.5481 26.4137 79.8477 26.6856C79.3196 26.8918 78.5252 27.1356 77.0627 27.2025C75.4815 27.2743 75.0064 27.29 71.0014 27.29C66.9961 27.29 66.5214 27.2743 64.9401 27.2025C63.4776 27.135 62.6838 26.8906 62.1548 26.6853C61.4547 26.4134 60.9547 26.0884 60.4297 25.5634C59.9047 25.0384 59.5797 24.5396 59.3072 23.8393C59.1019 23.3112 58.8572 22.5174 58.7907 21.0549C58.7188 19.4736 58.7044 18.9986 58.7044 14.993C58.7044 10.9873 58.7188 10.5148 58.7907 8.93353C58.8575 7.47102 59.1019 6.67726 59.3072 6.1485C59.5791 5.44849 59.9047 4.94849 60.4297 4.42348C60.9547 3.89848 61.4547 3.57347 62.1548 3.30097C62.6835 3.09472 63.4776 2.85097 64.9401 2.78378C66.3239 2.72128 66.8601 2.70253 69.6558 2.6994V2.70315ZM79.0084 5.1938C78.0146 5.1938 77.2083 5.99912 77.2083 6.9932C77.2083 7.98696 78.0146 8.79322 79.0084 8.79322C80.0021 8.79322 80.8084 7.98696 80.8084 6.9932C80.8084 5.99944 80.0021 5.19318 79.0084 5.19318V5.1938ZM71.0014 7.29695C66.7473 7.29695 63.2982 10.746 63.2982 15.0002C63.2982 19.2543 66.7473 22.7018 71.0014 22.7018C75.2555 22.7018 78.7034 19.2543 78.7034 15.0002C78.7034 10.746 75.2552 7.29695 71.0011 7.29695H71.0014ZM71.0014 10.0001C73.7627 10.0001 76.0015 12.2386 76.0015 15.0002C76.0015 17.7614 73.7627 20.0002 71.0014 20.0002C68.2398 20.0002 66.0014 17.7614 66.0014 15.0002C66.0014 12.2386 68.2398 10.0001 71.0014 10.0001V10.0001Z" fill="#28334A"/>
<path d="M0 2.14901C0 0.962462 0.986273 0 2.20296 0H27.797C29.0137 0 30 0.962466 30 2.14901V27.851C30 29.0379 29.0137 30 27.797 30L2.20296 30C0.986273 30 0 29.0379 0 27.851V2.14901ZM9.26884 25.1131V11.5664H4.76617V25.1131H9.26884ZM7.01748 9.71686C8.58765 9.71686 9.56495 8.67662 9.56495 7.37663C9.53569 6.04738 8.58766 5.03601 7.04727 5.03601C5.50704 5.03601 4.5 6.04738 4.5 7.37663C4.5 8.67662 5.47709 9.71686 6.98814 9.71686H7.01748ZM16.2214 25.1131V17.5481C16.2214 17.1432 16.2506 16.7387 16.3695 16.4493C16.695 15.6404 17.4359 14.8026 18.6798 14.8026C20.3091 14.8026 20.9608 16.0448 20.9608 17.8659V25.1131H25.4631V17.3456C25.4631 13.1847 23.2417 11.2485 20.2793 11.2485C17.8908 11.2485 16.8199 12.5613 16.2215 13.4844V13.531H16.1914C16.2013 13.5156 16.2113 13.5 16.2215 13.4844V11.5664H11.7189C11.778 12.8376 11.7189 25.1131 11.7189 25.1131H16.2214Z" fill="#28334A"/>
<path d="M407 1.875C407 0.839466 407.839 0 408.875 0H420.125C421.161 0 422 0.839466 422 1.875V28.125C422 29.1605 421.161 30 420.125 30H408.875C407.839 30 407 29.1605 407 28.125V1.875ZM408.875 27.1875C408.875 27.7053 409.295 28.125 409.812 28.125C410.33 28.125 410.75 27.7053 410.75 27.1875C410.75 26.6697 410.33 26.25 409.812 26.25C409.295 26.25 408.875 26.6697 408.875 27.1875ZM412.625 27.1875C412.625 27.7053 413.045 28.125 413.562 28.125C414.08 28.125 414.5 27.7053 414.5 27.1875C414.5 26.6697 414.08 26.25 413.562 26.25C413.045 26.25 412.625 26.6697 412.625 27.1875ZM409.812 1.875C409.295 1.875 408.875 2.29473 408.875 2.8125C408.875 3.33027 409.295 3.75 409.812 3.75H419.188C419.705 3.75 420.125 3.33027 420.125 2.8125C420.125 2.29473 419.705 1.875 419.188 1.875H409.812ZM408.875 6.5625C408.875 7.08027 409.295 7.5 409.812 7.5H419.188C419.705 7.5 420.125 7.08027 420.125 6.5625C420.125 6.04473 419.705 5.625 419.188 5.625H409.812C409.295 5.625 408.875 6.04473 408.875 6.5625Z" fill="black"/>
<path d="M394.812 3.75C393.259 3.75 392 5.0092 392 6.5625V19.6875C392 21.2408 393.259 22.5 394.812 22.5H403.25V26.25H402.312C401.795 26.25 401.375 26.6697 401.375 27.1875C401.375 27.7053 401.795 28.125 402.312 28.125H405.125V20.625H394.812C394.295 20.625 393.875 20.2053 393.875 19.6875V6.5625C393.875 6.04473 394.295 5.625 394.812 5.625H405.125V3.75H394.812Z" fill="black"/>
<path d="M235.25 5.625C235.25 8.7316 232.732 11.25 229.625 11.25C226.518 11.25 224 8.7316 224 5.625C224 2.5184 226.518 0 229.625 0C232.732 0 235.25 2.5184 235.25 5.625ZM225.875 5.625C225.875 7.69607 227.554 9.375 229.625 9.375C231.696 9.375 233.375 7.69607 233.375 5.625C233.375 3.55393 231.696 1.875 229.625 1.875C227.554 1.875 225.875 3.55393 225.875 5.625Z" fill="black"/>
<path d="M240.875 11.25H241.812C243.717 11.25 245.29 12.67 245.531 14.5091L251.363 11.9167C252.603 11.3656 254 12.2732 254 13.6301V27.6199C254 28.9768 252.603 29.8844 251.363 29.3333L245.531 26.7409C245.29 28.58 243.717 30 241.812 30H227.75C225.679 30 224 28.3211 224 26.25V15C224 12.9289 225.679 11.25 227.75 11.25H229.625H240.875ZM252.125 27.6199L252.125 13.6301L245.562 16.5468V24.7032L252.125 27.6199ZM225.875 15V26.25C225.875 27.2855 226.714 28.125 227.75 28.125H241.812C242.848 28.125 243.688 27.2855 243.688 26.25V15C243.688 13.9645 242.848 13.125 241.812 13.125H227.75C226.714 13.125 225.875 13.9645 225.875 15Z" fill="black"/>
<path d="M240.875 11.25C243.982 11.25 246.5 8.7316 246.5 5.625C246.5 2.5184 243.982 0 240.875 0C237.768 0 235.25 2.5184 235.25 5.625C235.25 8.7316 237.768 11.25 240.875 11.25ZM237.125 5.625C237.125 3.55393 238.804 1.875 240.875 1.875C242.946 1.875 244.625 3.55393 244.625 5.625C244.625 7.69607 242.946 9.375 240.875 9.375C238.804 9.375 237.125 7.69607 237.125 5.625Z" fill="black"/>
<path d="M301.629 26.2695C304.513 23.3854 306.297 19.401 306.297 15C306.297 10.599 304.513 6.61459 301.629 3.73047L300.303 5.05629C302.848 7.60111 304.422 11.1167 304.422 15C304.422 18.8832 302.848 22.3989 300.303 24.9437L301.629 26.2695Z" fill="black"/>
<path d="M298.977 23.6178C301.183 21.4123 302.547 18.3655 302.547 15C302.547 11.6345 301.183 8.58762 298.977 6.38212L297.652 7.70794C299.518 9.57414 300.672 12.1523 300.672 15C300.672 17.8477 299.518 20.4258 297.652 22.292L298.977 23.6178Z" fill="black"/>
<path d="M298.797 15C298.797 17.3299 297.853 19.4393 296.326 20.9662L295 19.6404C296.188 18.4528 296.922 16.8122 296.922 15C296.922 13.1878 296.188 11.5472 295 10.3596L296.326 9.03377C297.853 10.5607 298.797 12.67 298.797 15Z" fill="black"/>
<path d="M293.125 7.49993C293.125 7.13955 292.918 6.81107 292.594 6.65496C292.269 6.49885 291.883 6.54274 291.602 6.76787L287.171 10.3124H282.812C282.295 10.3124 281.875 10.7322 281.875 11.2499V18.7499C281.875 19.2677 282.295 19.6874 282.812 19.6874H287.171L291.602 23.232C291.883 23.4571 292.269 23.501 292.594 23.3449C292.918 23.1888 293.125 22.8603 293.125 22.4999V7.49993ZM288.086 11.982L291.25 9.45052V20.5493L288.086 18.0179C287.919 17.8849 287.713 17.8124 287.5 17.8124H283.75V12.1874H287.5C287.713 12.1874 287.919 12.115 288.086 11.982Z" fill="black"/>
<path d="M346.009 2.98282C343.972 3.53479 341.91 4.18734 340.69 4.58559C340.354 4.69516 340.118 4.98594 340.074 5.31822C339.035 13.1117 341.435 18.8 344.298 22.5455C345.736 24.4261 347.291 25.817 348.588 26.7313C349.236 27.1889 349.81 27.5197 350.261 27.7319C350.486 27.8381 350.671 27.9097 350.811 27.9532C350.927 27.9889 350.986 27.9974 351 27.9994C351.014 27.9974 351.073 27.9889 351.189 27.9532C351.329 27.9097 351.514 27.8381 351.739 27.7319C352.19 27.5197 352.764 27.1889 353.412 26.7313C354.709 25.817 356.264 24.4261 357.702 22.5455C360.565 18.8 362.965 13.1117 361.926 5.31822C361.882 4.98594 361.646 4.69516 361.31 4.58559C360.09 4.18734 358.028 3.53479 355.991 2.98282C353.909 2.41847 351.995 2 351 2C350.005 2 348.091 2.41847 346.009 2.98282ZM345.509 1.04935C347.545 0.497519 349.707 0 351 0C352.293 0 354.455 0.497518 356.491 1.04935C358.572 1.61356 360.669 2.27739 361.903 2.67991C362.932 3.01582 363.711 3.92548 363.86 5.04768C364.979 13.4427 362.385 19.6629 359.239 23.7787C357.672 25.8289 355.968 27.3569 354.519 28.3788C353.795 28.8894 353.124 29.281 352.554 29.5493C352.028 29.7971 351.464 30 351 30C350.536 30 349.972 29.7971 349.446 29.5493C348.876 29.281 348.205 28.8894 347.481 28.3788C346.032 27.3569 344.328 25.8289 342.761 23.7787C339.615 19.6629 337.021 13.4427 338.14 5.04768C338.289 3.92548 339.068 3.01582 340.097 2.67991C341.331 2.27739 343.428 1.61356 345.509 1.04935Z" fill="black"/>
<path d="M356.35 9.64959C356.717 10.0157 356.717 10.6093 356.35 10.9754L350.725 16.6004C350.55 16.7762 350.311 16.875 350.062 16.875C349.814 16.875 349.575 16.7762 349.4 16.6004L346.587 13.7879C346.221 13.4218 346.221 12.8282 346.587 12.4621C346.953 12.096 347.547 12.096 347.913 12.4621L350.062 14.6117L355.025 9.64959C355.391 9.28347 355.984 9.28347 356.35 9.64959Z" fill="black"/>
</svg>
