<svg width="266" height="667" viewBox="0 0 266 667" fill="none" xmlns="http://www.w3.org/2000/svg">
<circle cx="41" cy="41" r="40.5" fill="#C4D600" stroke="black"/>
<circle cx="41" cy="392" r="40.5" fill="#D9E1E2" stroke="black"/>
<circle cx="41" cy="275" r="40.5" fill="#101820" stroke="black"/>
<circle cx="41" cy="626" r="40.5" fill="#B2B2B2" stroke="black"/>
<circle cx="41" cy="158" r="40.5" fill="#28334A" stroke="black"/>
<circle cx="41" cy="509" r="40.5" fill="#53565A" stroke="black"/>
<path d="M122.96 53C122.491 53 122.117 52.8187 121.84 52.456C121.584 52.0933 121.488 51.656 121.552 51.144L124.88 31.784C124.944 31.4213 125.104 31.1333 125.36 30.92C125.616 30.7067 125.915 30.6 126.256 30.6C126.747 30.6 127.131 30.7813 127.408 31.144C127.685 31.5067 127.781 31.944 127.696 32.456L124.368 51.816C124.325 52.1573 124.165 52.4453 123.888 52.68C123.632 52.8933 123.323 53 122.96 53ZM121.744 38.696C121.317 38.696 120.955 38.5573 120.656 38.28C120.379 37.9813 120.24 37.6187 120.24 37.192C120.24 36.7867 120.379 36.456 120.656 36.2C120.955 35.944 121.317 35.816 121.744 35.816H137.232C137.659 35.816 138.011 35.9653 138.288 36.264C138.587 36.5413 138.736 36.8933 138.736 37.32C138.736 37.7253 138.587 38.056 138.288 38.312C138.011 38.568 137.659 38.696 137.232 38.696H121.744ZM131.504 53C131.013 53 130.629 52.8187 130.352 52.456C130.075 52.0933 129.979 51.656 130.064 51.144L133.392 31.784C133.456 31.4213 133.616 31.1333 133.872 30.92C134.128 30.7067 134.437 30.6 134.8 30.6C135.291 30.6 135.664 30.7813 135.92 31.144C136.197 31.5067 136.293 31.944 136.208 32.456L132.88 51.816C132.837 52.1573 132.688 52.4453 132.432 52.68C132.176 52.8933 131.867 53 131.504 53ZM120.528 47.624C120.101 47.624 119.739 47.4853 119.44 47.208C119.163 46.9093 119.024 46.5573 119.024 46.152C119.024 45.7467 119.163 45.416 119.44 45.16C119.739 44.904 120.101 44.776 120.528 44.776H136.048C136.475 44.776 136.827 44.9147 137.104 45.192C137.403 45.4693 137.552 45.8213 137.552 46.248C137.552 46.6533 137.403 46.984 137.104 47.24C136.827 47.496 136.475 47.624 136.048 47.624H120.528ZM158.246 31.88C158.715 32.1147 158.982 32.4773 159.046 32.968C159.131 33.4587 159.014 33.9067 158.694 34.312C158.459 34.632 158.15 34.8133 157.766 34.856C157.403 34.8987 157.041 34.824 156.678 34.632C156.059 34.312 155.409 34.056 154.726 33.864C154.043 33.672 153.318 33.576 152.55 33.576C151.334 33.576 150.235 33.7787 149.254 34.184C148.294 34.568 147.462 35.1333 146.758 35.88C146.054 36.6053 145.51 37.4693 145.126 38.472C144.763 39.4747 144.582 40.584 144.582 41.8C144.582 43.144 144.785 44.3387 145.19 45.384C145.595 46.408 146.15 47.2827 146.854 48.008C147.579 48.712 148.422 49.2453 149.382 49.608C150.363 49.9493 151.419 50.12 152.55 50.12C153.275 50.12 153.979 50.0347 154.662 49.864C155.366 49.6933 156.027 49.4373 156.646 49.096C157.03 48.904 157.403 48.84 157.766 48.904C158.15 48.9467 158.459 49.128 158.694 49.448C159.057 49.896 159.185 50.3547 159.078 50.824C158.993 51.272 158.726 51.6133 158.278 51.848C157.745 52.1467 157.158 52.4027 156.518 52.616C155.878 52.8293 155.227 53 154.566 53.128C153.905 53.256 153.233 53.32 152.55 53.32C151.014 53.32 149.563 53.064 148.198 52.552C146.833 52.04 145.617 51.2933 144.55 50.312C143.483 49.3307 142.641 48.1253 142.022 46.696C141.425 45.2667 141.126 43.6347 141.126 41.8C141.126 40.1573 141.403 38.6427 141.958 37.256C142.534 35.848 143.334 34.6427 144.358 33.64C145.403 32.616 146.619 31.8267 148.006 31.272C149.393 30.696 150.907 30.408 152.55 30.408C153.574 30.408 154.566 30.536 155.526 30.792C156.507 31.048 157.414 31.4107 158.246 31.88ZM172.318 53C171.87 53 171.496 52.8507 171.198 52.552C170.899 52.232 170.75 51.8373 170.75 51.368V35.08L171.326 35.272L164.414 44.104L164.254 43.688H175.902C176.328 43.688 176.68 43.8373 176.958 44.136C177.256 44.4133 177.406 44.7653 177.406 45.192C177.406 45.5973 177.256 45.9387 176.958 46.216C176.68 46.4933 176.328 46.632 175.902 46.632H162.046C161.662 46.632 161.299 46.4827 160.958 46.184C160.616 45.864 160.446 45.4907 160.446 45.064C160.446 44.6587 160.584 44.296 160.862 43.976L171.038 31.24C171.187 31.0267 171.379 30.8667 171.614 30.76C171.848 30.6533 172.094 30.6 172.35 30.6C172.819 30.6 173.203 30.76 173.502 31.08C173.8 31.3787 173.95 31.7627 173.95 32.232V51.368C173.95 51.8373 173.79 52.232 173.47 52.552C173.15 52.8507 172.766 53 172.318 53ZM190.313 30.6C191.871 30.6 193.247 30.8987 194.441 31.496C195.636 32.072 196.628 32.8827 197.417 33.928C198.228 34.952 198.836 36.1467 199.241 37.512C199.647 38.856 199.849 40.2853 199.849 41.8C199.849 43.8693 199.487 45.7573 198.761 47.464C198.036 49.1493 196.969 50.4933 195.561 51.496C194.153 52.4987 192.404 53 190.313 53H182.505C182.057 53 181.673 52.8507 181.353 52.552C181.033 52.232 180.873 51.8373 180.873 51.368V32.232C180.873 31.7627 181.033 31.3787 181.353 31.08C181.673 30.76 182.057 30.6 182.505 30.6H190.313ZM189.993 49.928C191.508 49.928 192.735 49.5547 193.673 48.808C194.612 48.0613 195.295 47.08 195.721 45.864C196.169 44.6267 196.393 43.272 196.393 41.8C196.393 40.712 196.265 39.688 196.009 38.728C195.775 37.7467 195.391 36.8827 194.857 36.136C194.345 35.368 193.684 34.7707 192.873 34.344C192.084 33.896 191.124 33.672 189.993 33.672H183.945L184.233 33.384V50.248L184.041 49.928H189.993ZM210.34 53.32C209.145 53.32 208.078 53.0853 207.14 52.616C206.222 52.1467 205.444 51.5067 204.804 50.696C204.185 49.8853 203.705 48.9787 203.364 47.976C203.044 46.952 202.884 45.9067 202.884 44.84C202.884 44.008 202.98 43.0587 203.172 41.992C203.364 40.904 203.684 39.784 204.132 38.632C204.58 37.4587 205.166 36.3387 205.891 35.272C206.638 34.2053 207.556 33.2453 208.644 32.392C209.753 31.5173 211.065 30.856 212.58 30.408C212.793 30.344 212.996 30.312 213.188 30.312C213.614 30.312 213.988 30.4293 214.308 30.664C214.649 30.8773 214.82 31.272 214.82 31.848C214.82 32.232 214.692 32.5733 214.436 32.872C214.18 33.1493 213.838 33.352 213.412 33.48C212.644 33.736 211.876 34.12 211.108 34.632C210.34 35.144 209.625 35.752 208.964 36.456C208.302 37.16 207.737 37.9493 207.268 38.824C206.82 39.6773 206.489 40.5733 206.276 41.512L205.476 41.64C205.796 41.1493 206.201 40.68 206.692 40.232C207.204 39.7627 207.801 39.3787 208.484 39.08C209.166 38.76 209.945 38.6 210.82 38.6C211.694 38.6 212.537 38.792 213.348 39.176C214.158 39.56 214.884 40.0933 215.524 40.776C216.185 41.4587 216.697 42.248 217.06 43.144C217.444 44.04 217.635 44.9893 217.635 45.992C217.635 47.3147 217.305 48.5413 216.644 49.672C216.004 50.7813 215.129 51.6667 214.02 52.328C212.932 52.9893 211.705 53.32 210.34 53.32ZM210.308 50.344C211.097 50.344 211.801 50.1627 212.42 49.8C213.038 49.416 213.529 48.8933 213.892 48.232C214.254 47.5707 214.436 46.824 214.436 45.992C214.436 45.16 214.265 44.4133 213.924 43.752C213.582 43.0907 213.102 42.5573 212.484 42.152C211.886 41.7467 211.182 41.544 210.372 41.544C209.54 41.544 208.804 41.7467 208.164 42.152C207.524 42.5573 207.022 43.1013 206.66 43.784C206.297 44.4453 206.116 45.192 206.116 46.024C206.116 46.792 206.297 47.5173 206.66 48.2C207.022 48.8613 207.513 49.384 208.132 49.768C208.772 50.152 209.497 50.344 210.308 50.344ZM228.447 53.32C226.655 53.32 225.14 52.8293 223.903 51.848C222.665 50.8453 221.727 49.48 221.087 47.752C220.468 46.0027 220.159 44.0187 220.159 41.8C220.159 39.56 220.468 37.576 221.087 35.848C221.727 34.0987 222.665 32.7333 223.903 31.752C225.14 30.7707 226.655 30.28 228.447 30.28C230.239 30.28 231.743 30.7707 232.959 31.752C234.196 32.7333 235.135 34.0987 235.775 35.848C236.415 37.576 236.735 39.56 236.735 41.8C236.735 44.0187 236.415 46.0027 235.775 47.752C235.135 49.48 234.196 50.8453 232.959 51.848C231.743 52.8293 230.239 53.32 228.447 53.32ZM228.447 50.088C229.449 50.088 230.303 49.768 231.007 49.128C231.732 48.488 232.287 47.5493 232.671 46.312C233.076 45.0747 233.279 43.5707 233.279 41.8C233.279 40.008 233.076 38.4933 232.671 37.256C232.287 36.0187 231.732 35.08 231.007 34.44C230.303 33.8 229.449 33.48 228.447 33.48C227.444 33.48 226.58 33.8 225.855 34.44C225.129 35.08 224.575 36.0187 224.191 37.256C223.807 38.4933 223.615 40.008 223.615 41.8C223.615 43.5707 223.807 45.0747 224.191 46.312C224.575 47.5493 225.129 48.488 225.855 49.128C226.58 49.768 227.444 50.088 228.447 50.088ZM247.916 53.32C246.124 53.32 244.609 52.8293 243.372 51.848C242.134 50.8453 241.196 49.48 240.556 47.752C239.937 46.0027 239.628 44.0187 239.628 41.8C239.628 39.56 239.937 37.576 240.556 35.848C241.196 34.0987 242.134 32.7333 243.372 31.752C244.609 30.7707 246.124 30.28 247.916 30.28C249.708 30.28 251.212 30.7707 252.428 31.752C253.665 32.7333 254.604 34.0987 255.244 35.848C255.884 37.576 256.204 39.56 256.204 41.8C256.204 44.0187 255.884 46.0027 255.244 47.752C254.604 49.48 253.665 50.8453 252.428 51.848C251.212 52.8293 249.708 53.32 247.916 53.32ZM247.916 50.088C248.918 50.088 249.772 49.768 250.476 49.128C251.201 48.488 251.756 47.5493 252.14 46.312C252.545 45.0747 252.748 43.5707 252.748 41.8C252.748 40.008 252.545 38.4933 252.14 37.256C251.756 36.0187 251.201 35.08 250.476 34.44C249.772 33.8 248.918 33.48 247.916 33.48C246.913 33.48 246.049 33.8 245.324 34.44C244.598 35.08 244.044 36.0187 243.66 37.256C243.276 38.4933 243.084 40.008 243.084 41.8C243.084 43.5707 243.276 45.0747 243.66 46.312C244.044 47.5493 244.598 48.488 245.324 49.128C246.049 49.768 246.913 50.088 247.916 50.088Z" fill="black"/>
<path d="M122.96 170C122.491 170 122.117 169.819 121.84 169.456C121.584 169.093 121.488 168.656 121.552 168.144L124.88 148.784C124.944 148.421 125.104 148.133 125.36 147.92C125.616 147.707 125.915 147.6 126.256 147.6C126.747 147.6 127.131 147.781 127.408 148.144C127.685 148.507 127.781 148.944 127.696 149.456L124.368 168.816C124.325 169.157 124.165 169.445 123.888 169.68C123.632 169.893 123.323 170 122.96 170ZM121.744 155.696C121.317 155.696 120.955 155.557 120.656 155.28C120.379 154.981 120.24 154.619 120.24 154.192C120.24 153.787 120.379 153.456 120.656 153.2C120.955 152.944 121.317 152.816 121.744 152.816H137.232C137.659 152.816 138.011 152.965 138.288 153.264C138.587 153.541 138.736 153.893 138.736 154.32C138.736 154.725 138.587 155.056 138.288 155.312C138.011 155.568 137.659 155.696 137.232 155.696H121.744ZM131.504 170C131.013 170 130.629 169.819 130.352 169.456C130.075 169.093 129.979 168.656 130.064 168.144L133.392 148.784C133.456 148.421 133.616 148.133 133.872 147.92C134.128 147.707 134.437 147.6 134.8 147.6C135.291 147.6 135.664 147.781 135.92 148.144C136.197 148.507 136.293 148.944 136.208 149.456L132.88 168.816C132.837 169.157 132.688 169.445 132.432 169.68C132.176 169.893 131.867 170 131.504 170ZM120.528 164.624C120.101 164.624 119.739 164.485 119.44 164.208C119.163 163.909 119.024 163.557 119.024 163.152C119.024 162.747 119.163 162.416 119.44 162.16C119.739 161.904 120.101 161.776 120.528 161.776H136.048C136.475 161.776 136.827 161.915 137.104 162.192C137.403 162.469 137.552 162.821 137.552 163.248C137.552 163.653 137.403 163.984 137.104 164.24C136.827 164.496 136.475 164.624 136.048 164.624H120.528ZM154.566 167.024C154.993 167.024 155.345 167.173 155.622 167.472C155.921 167.749 156.07 168.101 156.07 168.528C156.07 168.955 155.921 169.307 155.622 169.584C155.345 169.861 154.993 170 154.566 170H143.334C142.865 170 142.491 169.861 142.214 169.584C141.937 169.307 141.798 168.933 141.798 168.464C141.798 168.037 141.947 167.653 142.246 167.312L149.382 159.6C150.299 158.619 151.003 157.648 151.494 156.688C152.006 155.728 152.262 154.885 152.262 154.16C152.262 152.987 151.91 152.037 151.206 151.312C150.502 150.587 149.574 150.224 148.422 150.224C147.931 150.224 147.43 150.341 146.918 150.576C146.427 150.789 145.958 151.088 145.51 151.472C145.083 151.835 144.71 152.261 144.39 152.752C144.177 153.051 143.963 153.243 143.75 153.328C143.537 153.413 143.334 153.456 143.142 153.456C142.737 153.456 142.363 153.317 142.022 153.04C141.702 152.741 141.542 152.4 141.542 152.016C141.542 151.717 141.638 151.429 141.83 151.152C142.022 150.875 142.267 150.587 142.566 150.288C143.035 149.712 143.601 149.2 144.262 148.752C144.945 148.283 145.659 147.92 146.406 147.664C147.153 147.408 147.889 147.28 148.614 147.28C150.022 147.28 151.238 147.557 152.262 148.112C153.307 148.667 154.107 149.445 154.662 150.448C155.238 151.451 155.526 152.635 155.526 154C155.526 155.152 155.174 156.432 154.47 157.84C153.787 159.227 152.827 160.592 151.59 161.936L146.63 167.344L146.278 167.024H154.566ZM169.941 158.672L169.845 158.096C170.634 158.416 171.327 158.864 171.925 159.44C172.522 159.995 172.981 160.624 173.301 161.328C173.642 162.032 173.812 162.768 173.812 163.536C173.812 164.731 173.482 165.829 172.821 166.832C172.181 167.813 171.306 168.603 170.197 169.2C169.109 169.776 167.893 170.064 166.549 170.064C165.183 170.064 163.946 169.776 162.837 169.2C161.749 168.603 160.874 167.813 160.213 166.832C159.573 165.829 159.253 164.731 159.253 163.536C159.253 162.576 159.455 161.733 159.861 161.008C160.266 160.283 160.778 159.675 161.397 159.184C162.015 158.693 162.645 158.288 163.285 157.968L163.061 158.672C162.527 158.437 162.005 158.117 161.493 157.712C161.002 157.285 160.597 156.752 160.277 156.112C159.957 155.472 159.797 154.736 159.797 153.904C159.797 152.731 160.095 151.675 160.693 150.736C161.29 149.776 162.101 149.019 163.125 148.464C164.149 147.888 165.29 147.6 166.549 147.6C167.807 147.6 168.938 147.888 169.941 148.464C170.943 149.019 171.743 149.776 172.341 150.736C172.938 151.675 173.237 152.731 173.237 153.904C173.237 154.8 173.066 155.568 172.725 156.208C172.383 156.827 171.957 157.339 171.445 157.744C170.933 158.149 170.431 158.459 169.941 158.672ZM162.997 153.968C162.997 154.629 163.157 155.216 163.477 155.728C163.797 156.24 164.223 156.645 164.757 156.944C165.29 157.243 165.887 157.392 166.549 157.392C167.189 157.392 167.775 157.243 168.309 156.944C168.842 156.645 169.258 156.24 169.557 155.728C169.877 155.216 170.037 154.629 170.037 153.968C170.037 152.965 169.706 152.144 169.045 151.504C168.383 150.864 167.551 150.544 166.549 150.544C165.503 150.544 164.65 150.864 163.989 151.504C163.327 152.144 162.997 152.965 162.997 153.968ZM166.549 167.12C167.701 167.12 168.661 166.779 169.429 166.096C170.218 165.392 170.613 164.528 170.613 163.504C170.613 162.8 170.431 162.171 170.069 161.616C169.706 161.061 169.215 160.624 168.597 160.304C167.978 159.984 167.295 159.824 166.549 159.824C165.802 159.824 165.119 159.984 164.501 160.304C163.882 160.624 163.391 161.061 163.029 161.616C162.666 162.171 162.485 162.8 162.485 163.504C162.485 164.528 162.869 165.392 163.637 166.096C164.405 166.779 165.375 167.12 166.549 167.12ZM178.578 165.904C178.749 165.904 178.93 165.936 179.122 166C179.314 166.043 179.527 166.149 179.762 166.32C180.146 166.661 180.605 166.949 181.138 167.184C181.693 167.397 182.322 167.504 183.026 167.504C183.815 167.504 184.551 167.323 185.234 166.96C185.917 166.576 186.471 166.043 186.898 165.36C187.325 164.677 187.538 163.867 187.538 162.928C187.538 161.968 187.335 161.189 186.93 160.592C186.525 159.973 186.002 159.515 185.362 159.216C184.722 158.896 184.05 158.736 183.346 158.736C182.941 158.736 182.599 158.779 182.322 158.864C182.045 158.928 181.778 159.003 181.522 159.088C181.266 159.152 180.989 159.184 180.69 159.184C180.285 159.184 179.965 159.045 179.73 158.768C179.495 158.469 179.378 158.117 179.378 157.712C179.378 157.456 179.431 157.232 179.538 157.04C179.645 156.848 179.794 156.635 179.986 156.4L185.906 150.064L186.61 150.704H178.13C177.703 150.704 177.341 150.565 177.042 150.288C176.765 149.989 176.626 149.627 176.626 149.2C176.626 148.795 176.765 148.453 177.042 148.176C177.341 147.899 177.703 147.76 178.13 147.76H188.242C188.797 147.76 189.202 147.92 189.458 148.24C189.735 148.56 189.874 148.933 189.874 149.36C189.874 149.595 189.81 149.819 189.682 150.032C189.575 150.245 189.437 150.448 189.266 150.64L183.314 157.04L182.514 156.176C182.685 156.091 182.973 156.005 183.378 155.92C183.783 155.835 184.114 155.792 184.37 155.792C185.586 155.792 186.674 156.101 187.634 156.72C188.615 157.339 189.373 158.171 189.906 159.216C190.461 160.24 190.738 161.403 190.738 162.704C190.738 164.261 190.386 165.616 189.682 166.768C188.978 167.899 187.997 168.773 186.738 169.392C185.501 170.011 184.071 170.32 182.45 170.32C181.639 170.32 180.829 170.213 180.018 170C179.229 169.765 178.546 169.435 177.97 169.008C177.607 168.795 177.362 168.571 177.234 168.336C177.106 168.08 177.042 167.835 177.042 167.6C177.042 167.195 177.181 166.811 177.458 166.448C177.757 166.085 178.13 165.904 178.578 165.904ZM195.641 165.904C195.811 165.904 195.993 165.936 196.185 166C196.377 166.043 196.59 166.149 196.825 166.32C197.209 166.661 197.667 166.949 198.201 167.184C198.755 167.397 199.385 167.504 200.089 167.504C200.878 167.504 201.614 167.323 202.297 166.96C202.979 166.576 203.534 166.043 203.961 165.36C204.387 164.677 204.601 163.867 204.601 162.928C204.601 161.968 204.398 161.189 203.993 160.592C203.587 159.973 203.065 159.515 202.425 159.216C201.785 158.896 201.113 158.736 200.409 158.736C200.003 158.736 199.662 158.779 199.385 158.864C199.107 158.928 198.841 159.003 198.585 159.088C198.329 159.152 198.051 159.184 197.753 159.184C197.347 159.184 197.027 159.045 196.793 158.768C196.558 158.469 196.441 158.117 196.441 157.712C196.441 157.456 196.494 157.232 196.601 157.04C196.707 156.848 196.857 156.635 197.049 156.4L202.969 150.064L203.673 150.704H195.193C194.766 150.704 194.403 150.565 194.105 150.288C193.827 149.989 193.689 149.627 193.689 149.2C193.689 148.795 193.827 148.453 194.105 148.176C194.403 147.899 194.766 147.76 195.193 147.76H205.305C205.859 147.76 206.265 147.92 206.521 148.24C206.798 148.56 206.937 148.933 206.937 149.36C206.937 149.595 206.873 149.819 206.745 150.032C206.638 150.245 206.499 150.448 206.329 150.64L200.377 157.04L199.577 156.176C199.747 156.091 200.035 156.005 200.441 155.92C200.846 155.835 201.177 155.792 201.433 155.792C202.649 155.792 203.737 156.101 204.697 156.72C205.678 157.339 206.435 158.171 206.969 159.216C207.523 160.24 207.801 161.403 207.801 162.704C207.801 164.261 207.449 165.616 206.745 166.768C206.041 167.899 205.059 168.773 203.801 169.392C202.563 170.011 201.134 170.32 199.513 170.32C198.702 170.32 197.891 170.213 197.081 170C196.291 169.765 195.609 169.435 195.033 169.008C194.67 168.795 194.425 168.571 194.297 168.336C194.169 168.08 194.105 167.835 194.105 167.6C194.105 167.195 194.243 166.811 194.521 166.448C194.819 166.085 195.193 165.904 195.641 165.904ZM221.599 170C221.151 170 220.778 169.851 220.479 169.552C220.18 169.232 220.031 168.837 220.031 168.368V152.08L220.607 152.272L213.695 161.104L213.535 160.688H225.183C225.61 160.688 225.962 160.837 226.239 161.136C226.538 161.413 226.687 161.765 226.687 162.192C226.687 162.597 226.538 162.939 226.239 163.216C225.962 163.493 225.61 163.632 225.183 163.632H211.327C210.943 163.632 210.58 163.483 210.239 163.184C209.898 162.864 209.727 162.491 209.727 162.064C209.727 161.659 209.866 161.296 210.143 160.976L220.319 148.24C220.468 148.027 220.66 147.867 220.895 147.76C221.13 147.653 221.375 147.6 221.631 147.6C222.1 147.6 222.484 147.76 222.783 148.08C223.082 148.379 223.231 148.763 223.231 149.232V168.368C223.231 168.837 223.071 169.232 222.751 169.552C222.431 169.851 222.047 170 221.599 170ZM238.155 151.76L230.955 169.04C230.827 169.381 230.635 169.648 230.379 169.84C230.123 170.032 229.835 170.128 229.515 170.128C229.045 170.128 228.693 170 228.459 169.744C228.224 169.467 228.096 169.125 228.075 168.72C228.075 168.571 228.107 168.4 228.171 168.208L236.299 148.56C236.448 148.197 236.661 147.92 236.939 147.728C237.237 147.536 237.557 147.451 237.899 147.472C238.219 147.472 238.517 147.568 238.795 147.76C239.072 147.952 239.275 148.219 239.403 148.56L247.435 167.92C247.52 168.133 247.562 168.347 247.562 168.56C247.562 169.029 247.403 169.413 247.083 169.712C246.784 169.989 246.443 170.128 246.059 170.128C245.739 170.128 245.44 170.032 245.163 169.84C244.907 169.627 244.715 169.36 244.587 169.04L237.323 151.856L238.155 151.76ZM232.235 164.496L233.675 161.424H242.731L243.275 164.496H232.235Z" fill="black"/>
<path d="M122.96 287C122.491 287 122.117 286.819 121.84 286.456C121.584 286.093 121.488 285.656 121.552 285.144L124.88 265.784C124.944 265.421 125.104 265.133 125.36 264.92C125.616 264.707 125.915 264.6 126.256 264.6C126.747 264.6 127.131 264.781 127.408 265.144C127.685 265.507 127.781 265.944 127.696 266.456L124.368 285.816C124.325 286.157 124.165 286.445 123.888 286.68C123.632 286.893 123.323 287 122.96 287ZM121.744 272.696C121.317 272.696 120.955 272.557 120.656 272.28C120.379 271.981 120.24 271.619 120.24 271.192C120.24 270.787 120.379 270.456 120.656 270.2C120.955 269.944 121.317 269.816 121.744 269.816H137.232C137.659 269.816 138.011 269.965 138.288 270.264C138.587 270.541 138.736 270.893 138.736 271.32C138.736 271.725 138.587 272.056 138.288 272.312C138.011 272.568 137.659 272.696 137.232 272.696H121.744ZM131.504 287C131.013 287 130.629 286.819 130.352 286.456C130.075 286.093 129.979 285.656 130.064 285.144L133.392 265.784C133.456 265.421 133.616 265.133 133.872 264.92C134.128 264.707 134.437 264.6 134.8 264.6C135.291 264.6 135.664 264.781 135.92 265.144C136.197 265.507 136.293 265.944 136.208 266.456L132.88 285.816C132.837 286.157 132.688 286.445 132.432 286.68C132.176 286.893 131.867 287 131.504 287ZM120.528 281.624C120.101 281.624 119.739 281.485 119.44 281.208C119.163 280.909 119.024 280.557 119.024 280.152C119.024 279.747 119.163 279.416 119.44 279.16C119.739 278.904 120.101 278.776 120.528 278.776H136.048C136.475 278.776 136.827 278.915 137.104 279.192C137.403 279.469 137.552 279.821 137.552 280.248C137.552 280.653 137.403 280.984 137.104 281.24C136.827 281.496 136.475 281.624 136.048 281.624H120.528ZM147.238 287C146.747 287 146.342 286.851 146.022 286.552C145.702 286.232 145.542 285.837 145.542 285.368V268.216L145.958 268.792L142.982 270.872C142.726 271.085 142.417 271.192 142.054 271.192C141.627 271.192 141.243 271.032 140.902 270.712C140.582 270.371 140.422 269.976 140.422 269.528C140.422 268.973 140.699 268.515 141.254 268.152L146.118 264.92C146.31 264.792 146.513 264.707 146.726 264.664C146.961 264.621 147.174 264.6 147.366 264.6C147.857 264.6 148.251 264.76 148.55 265.08C148.849 265.379 148.998 265.763 148.998 266.232V285.368C148.998 285.837 148.827 286.232 148.486 286.552C148.166 286.851 147.75 287 147.238 287ZM161.728 287.32C159.936 287.32 158.421 286.829 157.184 285.848C155.947 284.845 155.008 283.48 154.368 281.752C153.749 280.003 153.44 278.019 153.44 275.8C153.44 273.56 153.749 271.576 154.368 269.848C155.008 268.099 155.947 266.733 157.184 265.752C158.421 264.771 159.936 264.28 161.728 264.28C163.52 264.28 165.024 264.771 166.24 265.752C167.477 266.733 168.416 268.099 169.056 269.848C169.696 271.576 170.016 273.56 170.016 275.8C170.016 278.019 169.696 280.003 169.056 281.752C168.416 283.48 167.477 284.845 166.24 285.848C165.024 286.829 163.52 287.32 161.728 287.32ZM161.728 284.088C162.731 284.088 163.584 283.768 164.288 283.128C165.013 282.488 165.568 281.549 165.952 280.312C166.357 279.075 166.56 277.571 166.56 275.8C166.56 274.008 166.357 272.493 165.952 271.256C165.568 270.019 165.013 269.08 164.288 268.44C163.584 267.8 162.731 267.48 161.728 267.48C160.725 267.48 159.861 267.8 159.136 268.44C158.411 269.08 157.856 270.019 157.472 271.256C157.088 272.493 156.896 274.008 156.896 275.8C156.896 277.571 157.088 279.075 157.472 280.312C157.856 281.549 158.411 282.488 159.136 283.128C159.861 283.768 160.725 284.088 161.728 284.088ZM178.957 287C178.466 287 178.061 286.851 177.741 286.552C177.421 286.232 177.261 285.837 177.261 285.368V268.216L177.677 268.792L174.701 270.872C174.445 271.085 174.135 271.192 173.773 271.192C173.346 271.192 172.962 271.032 172.621 270.712C172.301 270.371 172.141 269.976 172.141 269.528C172.141 268.973 172.418 268.515 172.973 268.152L177.837 264.92C178.029 264.792 178.231 264.707 178.445 264.664C178.679 264.621 178.893 264.6 179.085 264.6C179.575 264.6 179.97 264.76 180.269 265.08C180.567 265.379 180.717 265.763 180.717 266.232V285.368C180.717 285.837 180.546 286.232 180.205 286.552C179.885 286.851 179.469 287 178.957 287ZM195.847 275.672L195.751 275.096C196.54 275.416 197.233 275.864 197.831 276.44C198.428 276.995 198.887 277.624 199.207 278.328C199.548 279.032 199.719 279.768 199.719 280.536C199.719 281.731 199.388 282.829 198.727 283.832C198.087 284.813 197.212 285.603 196.103 286.2C195.015 286.776 193.799 287.064 192.455 287.064C191.089 287.064 189.852 286.776 188.743 286.2C187.655 285.603 186.78 284.813 186.119 283.832C185.479 282.829 185.159 281.731 185.159 280.536C185.159 279.576 185.361 278.733 185.767 278.008C186.172 277.283 186.684 276.675 187.303 276.184C187.921 275.693 188.551 275.288 189.191 274.968L188.967 275.672C188.433 275.437 187.911 275.117 187.399 274.712C186.908 274.285 186.503 273.752 186.183 273.112C185.863 272.472 185.703 271.736 185.703 270.904C185.703 269.731 186.001 268.675 186.599 267.736C187.196 266.776 188.007 266.019 189.031 265.464C190.055 264.888 191.196 264.6 192.455 264.6C193.713 264.6 194.844 264.888 195.847 265.464C196.849 266.019 197.649 266.776 198.247 267.736C198.844 268.675 199.143 269.731 199.143 270.904C199.143 271.8 198.972 272.568 198.631 273.208C198.289 273.827 197.863 274.339 197.351 274.744C196.839 275.149 196.337 275.459 195.847 275.672ZM188.903 270.968C188.903 271.629 189.063 272.216 189.383 272.728C189.703 273.24 190.129 273.645 190.663 273.944C191.196 274.243 191.793 274.392 192.455 274.392C193.095 274.392 193.681 274.243 194.215 273.944C194.748 273.645 195.164 273.24 195.463 272.728C195.783 272.216 195.943 271.629 195.943 270.968C195.943 269.965 195.612 269.144 194.951 268.504C194.289 267.864 193.457 267.544 192.455 267.544C191.409 267.544 190.556 267.864 189.895 268.504C189.233 269.144 188.903 269.965 188.903 270.968ZM192.455 284.12C193.607 284.12 194.567 283.779 195.335 283.096C196.124 282.392 196.519 281.528 196.519 280.504C196.519 279.8 196.337 279.171 195.975 278.616C195.612 278.061 195.121 277.624 194.503 277.304C193.884 276.984 193.201 276.824 192.455 276.824C191.708 276.824 191.025 276.984 190.407 277.304C189.788 277.624 189.297 278.061 188.935 278.616C188.572 279.171 188.391 279.8 188.391 280.504C188.391 281.528 188.775 282.392 189.543 283.096C190.311 283.779 191.281 284.12 192.455 284.12ZM215.972 284.024C216.399 284.024 216.751 284.173 217.028 284.472C217.327 284.749 217.476 285.101 217.476 285.528C217.476 285.955 217.327 286.307 217.028 286.584C216.751 286.861 216.399 287 215.972 287H204.74C204.271 287 203.898 286.861 203.62 286.584C203.343 286.307 203.204 285.933 203.204 285.464C203.204 285.037 203.354 284.653 203.652 284.312L210.788 276.6C211.706 275.619 212.41 274.648 212.9 273.688C213.412 272.728 213.668 271.885 213.668 271.16C213.668 269.987 213.316 269.037 212.612 268.312C211.908 267.587 210.98 267.224 209.828 267.224C209.338 267.224 208.836 267.341 208.324 267.576C207.834 267.789 207.364 268.088 206.916 268.472C206.49 268.835 206.116 269.261 205.796 269.752C205.583 270.051 205.37 270.243 205.156 270.328C204.943 270.413 204.74 270.456 204.548 270.456C204.143 270.456 203.77 270.317 203.428 270.04C203.108 269.741 202.948 269.4 202.948 269.016C202.948 268.717 203.044 268.429 203.236 268.152C203.428 267.875 203.674 267.587 203.972 267.288C204.442 266.712 205.007 266.2 205.668 265.752C206.351 265.283 207.066 264.92 207.812 264.664C208.559 264.408 209.295 264.28 210.02 264.28C211.428 264.28 212.644 264.557 213.668 265.112C214.714 265.667 215.514 266.445 216.068 267.448C216.644 268.451 216.932 269.635 216.932 271C216.932 272.152 216.58 273.432 215.876 274.84C215.194 276.227 214.234 277.592 212.996 278.936L208.036 284.344L207.684 284.024H215.972ZM228.947 287.32C227.155 287.32 225.64 286.829 224.403 285.848C223.165 284.845 222.227 283.48 221.587 281.752C220.968 280.003 220.659 278.019 220.659 275.8C220.659 273.56 220.968 271.576 221.587 269.848C222.227 268.099 223.165 266.733 224.403 265.752C225.64 264.771 227.155 264.28 228.947 264.28C230.739 264.28 232.243 264.771 233.459 265.752C234.696 266.733 235.635 268.099 236.275 269.848C236.915 271.576 237.235 273.56 237.235 275.8C237.235 278.019 236.915 280.003 236.275 281.752C235.635 283.48 234.696 284.845 233.459 285.848C232.243 286.829 230.739 287.32 228.947 287.32ZM228.947 284.088C229.949 284.088 230.803 283.768 231.507 283.128C232.232 282.488 232.787 281.549 233.171 280.312C233.576 279.075 233.779 277.571 233.779 275.8C233.779 274.008 233.576 272.493 233.171 271.256C232.787 270.019 232.232 269.08 231.507 268.44C230.803 267.8 229.949 267.48 228.947 267.48C227.944 267.48 227.08 267.8 226.355 268.44C225.629 269.08 225.075 270.019 224.691 271.256C224.307 272.493 224.115 274.008 224.115 275.8C224.115 277.571 224.307 279.075 224.691 280.312C225.075 281.549 225.629 282.488 226.355 283.128C227.08 283.768 227.944 284.088 228.947 284.088Z" fill="black"/>
<path d="M122.96 404C122.491 404 122.117 403.819 121.84 403.456C121.584 403.093 121.488 402.656 121.552 402.144L124.88 382.784C124.944 382.421 125.104 382.133 125.36 381.92C125.616 381.707 125.915 381.6 126.256 381.6C126.747 381.6 127.131 381.781 127.408 382.144C127.685 382.507 127.781 382.944 127.696 383.456L124.368 402.816C124.325 403.157 124.165 403.445 123.888 403.68C123.632 403.893 123.323 404 122.96 404ZM121.744 389.696C121.317 389.696 120.955 389.557 120.656 389.28C120.379 388.981 120.24 388.619 120.24 388.192C120.24 387.787 120.379 387.456 120.656 387.2C120.955 386.944 121.317 386.816 121.744 386.816H137.232C137.659 386.816 138.011 386.965 138.288 387.264C138.587 387.541 138.736 387.893 138.736 388.32C138.736 388.725 138.587 389.056 138.288 389.312C138.011 389.568 137.659 389.696 137.232 389.696H121.744ZM131.504 404C131.013 404 130.629 403.819 130.352 403.456C130.075 403.093 129.979 402.656 130.064 402.144L133.392 382.784C133.456 382.421 133.616 382.133 133.872 381.92C134.128 381.707 134.437 381.6 134.8 381.6C135.291 381.6 135.664 381.781 135.92 382.144C136.197 382.507 136.293 382.944 136.208 383.456L132.88 402.816C132.837 403.157 132.688 403.445 132.432 403.68C132.176 403.893 131.867 404 131.504 404ZM120.528 398.624C120.101 398.624 119.739 398.485 119.44 398.208C119.163 397.909 119.024 397.557 119.024 397.152C119.024 396.747 119.163 396.416 119.44 396.16C119.739 395.904 120.101 395.776 120.528 395.776H136.048C136.475 395.776 136.827 395.915 137.104 396.192C137.403 396.469 137.552 396.821 137.552 397.248C137.552 397.653 137.403 397.984 137.104 398.24C136.827 398.496 136.475 398.624 136.048 398.624H120.528ZM151.782 381.6C153.339 381.6 154.715 381.899 155.91 382.496C157.105 383.072 158.097 383.883 158.886 384.928C159.697 385.952 160.305 387.147 160.71 388.512C161.115 389.856 161.318 391.285 161.318 392.8C161.318 394.869 160.955 396.757 160.23 398.464C159.505 400.149 158.438 401.493 157.03 402.496C155.622 403.499 153.873 404 151.782 404H143.974C143.526 404 143.142 403.851 142.822 403.552C142.502 403.232 142.342 402.837 142.342 402.368V383.232C142.342 382.763 142.502 382.379 142.822 382.08C143.142 381.76 143.526 381.6 143.974 381.6H151.782ZM151.462 400.928C152.977 400.928 154.203 400.555 155.142 399.808C156.081 399.061 156.763 398.08 157.19 396.864C157.638 395.627 157.862 394.272 157.862 392.8C157.862 391.712 157.734 390.688 157.478 389.728C157.243 388.747 156.859 387.883 156.326 387.136C155.814 386.368 155.153 385.771 154.342 385.344C153.553 384.896 152.593 384.672 151.462 384.672H145.414L145.702 384.384V401.248L145.51 400.928H151.462ZM171.648 381.216C172.843 381.216 173.899 381.451 174.816 381.92C175.755 382.389 176.534 383.029 177.152 383.84C177.792 384.629 178.272 385.536 178.592 386.56C178.934 387.563 179.104 388.608 179.104 389.696C179.104 390.528 179.008 391.488 178.816 392.576C178.624 393.643 178.304 394.763 177.856 395.936C177.408 397.109 176.811 398.24 176.064 399.328C175.339 400.416 174.422 401.397 173.312 402.272C172.224 403.125 170.923 403.787 169.408 404.256C169.195 404.299 168.992 404.32 168.8 404.32C168.374 404.32 167.99 404.203 167.648 403.968C167.328 403.733 167.168 403.349 167.168 402.816C167.168 402.411 167.296 402.069 167.552 401.792C167.808 401.515 168.15 401.312 168.576 401.184C169.622 400.8 170.646 400.213 171.648 399.424C172.651 398.613 173.515 397.664 174.24 396.576C174.966 395.467 175.456 394.283 175.712 393.024L176.512 392.896C176.192 393.344 175.787 393.803 175.296 394.272C174.806 394.741 174.219 395.136 173.536 395.456C172.854 395.755 172.064 395.904 171.168 395.904C169.782 395.904 168.576 395.595 167.552 394.976C166.528 394.336 165.739 393.461 165.184 392.352C164.63 391.243 164.352 389.973 164.352 388.544C164.352 387.221 164.672 386.005 165.312 384.896C165.974 383.787 166.848 382.901 167.936 382.24C169.046 381.557 170.283 381.216 171.648 381.216ZM171.68 384.16C170.891 384.16 170.187 384.352 169.568 384.736C168.95 385.12 168.459 385.643 168.096 386.304C167.734 386.965 167.552 387.712 167.552 388.544C167.552 389.376 167.712 390.133 168.032 390.816C168.352 391.477 168.822 392 169.44 392.384C170.059 392.768 170.784 392.96 171.616 392.96C172.448 392.96 173.184 392.768 173.824 392.384C174.464 391.979 174.966 391.435 175.328 390.752C175.691 390.069 175.872 389.323 175.872 388.512C175.872 387.701 175.691 386.976 175.328 386.336C174.966 385.675 174.475 385.152 173.856 384.768C173.238 384.363 172.512 384.16 171.68 384.16ZM184.974 381.6H196.046C196.494 381.6 196.867 381.749 197.166 382.048C197.486 382.347 197.646 382.72 197.646 383.168C197.646 383.616 197.486 383.979 197.166 384.256C196.867 384.533 196.494 384.672 196.046 384.672H186.382L186.702 384.128V391.296L186.414 390.976H194.606C195.054 390.976 195.427 391.125 195.726 391.424C196.046 391.723 196.206 392.107 196.206 392.576C196.206 393.024 196.046 393.387 195.726 393.664C195.427 393.941 195.054 394.08 194.606 394.08H186.478L186.702 393.792V401.184L186.478 400.928H196.046C196.494 400.928 196.867 401.088 197.166 401.408C197.486 401.707 197.646 402.059 197.646 402.464C197.646 402.912 197.486 403.285 197.166 403.584C196.867 403.861 196.494 404 196.046 404H184.974C184.526 404 184.142 403.851 183.822 403.552C183.502 403.232 183.342 402.837 183.342 402.368V383.232C183.342 382.763 183.502 382.379 183.822 382.08C184.142 381.76 184.526 381.6 184.974 381.6ZM206.519 404C206.029 404 205.623 403.851 205.303 403.552C204.983 403.232 204.823 402.837 204.823 402.368V385.216L205.239 385.792L202.263 387.872C202.007 388.085 201.698 388.192 201.335 388.192C200.909 388.192 200.525 388.032 200.183 387.712C199.863 387.371 199.703 386.976 199.703 386.528C199.703 385.973 199.981 385.515 200.535 385.152L205.399 381.92C205.591 381.792 205.794 381.707 206.007 381.664C206.242 381.621 206.455 381.6 206.647 381.6C207.138 381.6 207.533 381.76 207.831 382.08C208.13 382.379 208.279 382.763 208.279 383.232V402.368C208.279 402.837 208.109 403.232 207.767 403.552C207.447 403.851 207.031 404 206.519 404ZM215.505 381.6H226.577C227.025 381.6 227.399 381.749 227.697 382.048C228.017 382.347 228.177 382.72 228.177 383.168C228.177 383.616 228.017 383.979 227.697 384.256C227.399 384.533 227.025 384.672 226.577 384.672H216.913L217.233 384.128V391.296L216.945 390.976H225.137C225.585 390.976 225.959 391.125 226.257 391.424C226.577 391.723 226.737 392.107 226.737 392.576C226.737 393.024 226.577 393.387 226.257 393.664C225.959 393.941 225.585 394.08 225.137 394.08H217.009L217.233 393.792V401.184L217.009 400.928H226.577C227.025 400.928 227.399 401.088 227.697 401.408C228.017 401.707 228.177 402.059 228.177 402.464C228.177 402.912 228.017 403.285 227.697 403.584C227.399 403.861 227.025 404 226.577 404H215.505C215.057 404 214.673 403.851 214.353 403.552C214.033 403.232 213.873 402.837 213.873 402.368V383.232C213.873 382.763 214.033 382.379 214.353 382.08C214.673 381.76 215.057 381.6 215.505 381.6ZM244.379 401.024C244.805 401.024 245.157 401.173 245.435 401.472C245.733 401.749 245.883 402.101 245.883 402.528C245.883 402.955 245.733 403.307 245.435 403.584C245.157 403.861 244.805 404 244.379 404H233.147C232.677 404 232.304 403.861 232.027 403.584C231.749 403.307 231.611 402.933 231.611 402.464C231.611 402.037 231.76 401.653 232.059 401.312L239.195 393.6C240.112 392.619 240.816 391.648 241.307 390.688C241.819 389.728 242.075 388.885 242.075 388.16C242.075 386.987 241.723 386.037 241.019 385.312C240.315 384.587 239.387 384.224 238.235 384.224C237.744 384.224 237.243 384.341 236.731 384.576C236.24 384.789 235.771 385.088 235.323 385.472C234.896 385.835 234.523 386.261 234.203 386.752C233.989 387.051 233.776 387.243 233.562 387.328C233.349 387.413 233.147 387.456 232.955 387.456C232.549 387.456 232.176 387.317 231.835 387.04C231.515 386.741 231.355 386.4 231.355 386.016C231.355 385.717 231.451 385.429 231.643 385.152C231.835 384.875 232.08 384.587 232.379 384.288C232.848 383.712 233.413 383.2 234.075 382.752C234.757 382.283 235.472 381.92 236.219 381.664C236.965 381.408 237.701 381.28 238.427 381.28C239.835 381.28 241.051 381.557 242.075 382.112C243.12 382.667 243.92 383.445 244.475 384.448C245.051 385.451 245.339 386.635 245.339 388C245.339 389.152 244.987 390.432 244.283 391.84C243.6 393.227 242.64 394.592 241.403 395.936L236.443 401.344L236.091 401.024H244.379Z" fill="black"/>
<path d="M122.96 521C122.491 521 122.117 520.819 121.84 520.456C121.584 520.093 121.488 519.656 121.552 519.144L124.88 499.784C124.944 499.421 125.104 499.133 125.36 498.92C125.616 498.707 125.915 498.6 126.256 498.6C126.747 498.6 127.131 498.781 127.408 499.144C127.685 499.507 127.781 499.944 127.696 500.456L124.368 519.816C124.325 520.157 124.165 520.445 123.888 520.68C123.632 520.893 123.323 521 122.96 521ZM121.744 506.696C121.317 506.696 120.955 506.557 120.656 506.28C120.379 505.981 120.24 505.619 120.24 505.192C120.24 504.787 120.379 504.456 120.656 504.2C120.955 503.944 121.317 503.816 121.744 503.816H137.232C137.659 503.816 138.011 503.965 138.288 504.264C138.587 504.541 138.736 504.893 138.736 505.32C138.736 505.725 138.587 506.056 138.288 506.312C138.011 506.568 137.659 506.696 137.232 506.696H121.744ZM131.504 521C131.013 521 130.629 520.819 130.352 520.456C130.075 520.093 129.979 519.656 130.064 519.144L133.392 499.784C133.456 499.421 133.616 499.133 133.872 498.92C134.128 498.707 134.437 498.6 134.8 498.6C135.291 498.6 135.664 498.781 135.92 499.144C136.197 499.507 136.293 499.944 136.208 500.456L132.88 519.816C132.837 520.157 132.688 520.445 132.432 520.68C132.176 520.893 131.867 521 131.504 521ZM120.528 515.624C120.101 515.624 119.739 515.485 119.44 515.208C119.163 514.909 119.024 514.557 119.024 514.152C119.024 513.747 119.163 513.416 119.44 513.16C119.739 512.904 120.101 512.776 120.528 512.776H136.048C136.475 512.776 136.827 512.915 137.104 513.192C137.403 513.469 137.552 513.821 137.552 514.248C137.552 514.653 137.403 514.984 137.104 515.24C136.827 515.496 136.475 515.624 136.048 515.624H120.528ZM147.398 521.224C146.566 521.224 145.702 521.096 144.806 520.84C143.931 520.584 143.185 520.2 142.566 519.688C142.331 519.496 142.15 519.251 142.022 518.952C141.894 518.653 141.83 518.365 141.83 518.088C141.83 517.789 141.958 517.501 142.214 517.224C142.491 516.925 142.865 516.776 143.334 516.776C143.675 516.776 144.07 516.947 144.518 517.288C144.945 517.565 145.393 517.8 145.862 517.992C146.353 518.184 146.854 518.28 147.366 518.28C148.475 518.28 149.435 518.077 150.246 517.672C151.057 517.267 151.675 516.701 152.102 515.976C152.55 515.229 152.774 514.365 152.774 513.384C152.774 512.467 152.571 511.688 152.166 511.048C151.761 510.387 151.206 509.875 150.502 509.512C149.819 509.149 149.051 508.968 148.198 508.968C147.494 508.968 146.875 509.085 146.342 509.32C145.809 509.533 145.329 509.757 144.902 509.992C144.475 510.205 144.081 510.312 143.718 510.312C143.163 510.312 142.747 510.195 142.47 509.96C142.193 509.704 142.011 509.405 141.926 509.064C141.862 508.701 141.851 508.371 141.894 508.072L143.014 500.04C143.078 499.677 143.249 499.379 143.526 499.144C143.825 498.888 144.187 498.76 144.614 498.76H153.99C154.417 498.76 154.769 498.909 155.046 499.208C155.345 499.485 155.494 499.837 155.494 500.264C155.494 500.691 155.345 501.043 155.046 501.32C154.769 501.597 154.417 501.736 153.99 501.736H145.414L145.766 501.448L144.742 508.328L144.262 507.368C144.454 507.155 144.774 506.952 145.222 506.76C145.691 506.547 146.214 506.376 146.79 506.248C147.387 506.099 147.985 506.024 148.582 506.024C149.99 506.024 151.249 506.344 152.358 506.984C153.489 507.603 154.374 508.467 155.014 509.576C155.654 510.685 155.974 511.944 155.974 513.352C155.974 514.931 155.622 516.317 154.918 517.512C154.214 518.685 153.222 519.603 151.942 520.264C150.662 520.904 149.147 521.224 147.398 521.224ZM161.203 516.904C161.374 516.904 161.555 516.936 161.747 517C161.939 517.043 162.152 517.149 162.387 517.32C162.771 517.661 163.23 517.949 163.763 518.184C164.318 518.397 164.947 518.504 165.651 518.504C166.44 518.504 167.176 518.323 167.859 517.96C168.542 517.576 169.096 517.043 169.523 516.36C169.95 515.677 170.163 514.867 170.163 513.928C170.163 512.968 169.96 512.189 169.555 511.592C169.15 510.973 168.627 510.515 167.987 510.216C167.347 509.896 166.675 509.736 165.971 509.736C165.566 509.736 165.224 509.779 164.947 509.864C164.67 509.928 164.403 510.003 164.147 510.088C163.891 510.152 163.614 510.184 163.315 510.184C162.91 510.184 162.59 510.045 162.355 509.768C162.12 509.469 162.003 509.117 162.003 508.712C162.003 508.456 162.056 508.232 162.163 508.04C162.27 507.848 162.419 507.635 162.611 507.4L168.531 501.064L169.235 501.704H160.755C160.328 501.704 159.966 501.565 159.667 501.288C159.39 500.989 159.251 500.627 159.251 500.2C159.251 499.795 159.39 499.453 159.667 499.176C159.966 498.899 160.328 498.76 160.755 498.76H170.867C171.422 498.76 171.827 498.92 172.083 499.24C172.36 499.56 172.499 499.933 172.499 500.36C172.499 500.595 172.435 500.819 172.307 501.032C172.2 501.245 172.062 501.448 171.891 501.64L165.939 508.04L165.139 507.176C165.31 507.091 165.598 507.005 166.003 506.92C166.408 506.835 166.739 506.792 166.995 506.792C168.211 506.792 169.299 507.101 170.259 507.72C171.24 508.339 171.998 509.171 172.531 510.216C173.086 511.24 173.363 512.403 173.363 513.704C173.363 515.261 173.011 516.616 172.307 517.768C171.603 518.899 170.622 519.773 169.363 520.392C168.126 521.011 166.696 521.32 165.075 521.32C164.264 521.32 163.454 521.213 162.643 521C161.854 520.765 161.171 520.435 160.595 520.008C160.232 519.795 159.987 519.571 159.859 519.336C159.731 519.08 159.667 518.835 159.667 518.6C159.667 518.195 159.806 517.811 160.083 517.448C160.382 517.085 160.755 516.904 161.203 516.904ZM182.586 521.224C181.754 521.224 180.89 521.096 179.994 520.84C179.119 520.584 178.372 520.2 177.754 519.688C177.519 519.496 177.338 519.251 177.21 518.952C177.082 518.653 177.018 518.365 177.018 518.088C177.018 517.789 177.146 517.501 177.402 517.224C177.679 516.925 178.052 516.776 178.522 516.776C178.863 516.776 179.258 516.947 179.706 517.288C180.132 517.565 180.58 517.8 181.05 517.992C181.54 518.184 182.042 518.28 182.554 518.28C183.663 518.28 184.623 518.077 185.434 517.672C186.244 517.267 186.863 516.701 187.29 515.976C187.738 515.229 187.962 514.365 187.962 513.384C187.962 512.467 187.759 511.688 187.354 511.048C186.948 510.387 186.394 509.875 185.69 509.512C185.007 509.149 184.239 508.968 183.385 508.968C182.682 508.968 182.063 509.085 181.53 509.32C180.996 509.533 180.516 509.757 180.09 509.992C179.663 510.205 179.268 510.312 178.906 510.312C178.351 510.312 177.935 510.195 177.658 509.96C177.38 509.704 177.199 509.405 177.114 509.064C177.05 508.701 177.039 508.371 177.082 508.072L178.202 500.04C178.266 499.677 178.436 499.379 178.714 499.144C179.012 498.888 179.375 498.76 179.802 498.76H189.178C189.604 498.76 189.956 498.909 190.234 499.208C190.532 499.485 190.682 499.837 190.682 500.264C190.682 500.691 190.532 501.043 190.234 501.32C189.956 501.597 189.604 501.736 189.178 501.736H180.602L180.954 501.448L179.93 508.328L179.45 507.368C179.642 507.155 179.962 506.952 180.41 506.76C180.879 506.547 181.402 506.376 181.978 506.248C182.575 506.099 183.172 506.024 183.77 506.024C185.178 506.024 186.436 506.344 187.546 506.984C188.676 507.603 189.562 508.467 190.202 509.576C190.842 510.685 191.162 511.944 191.162 513.352C191.162 514.931 190.81 516.317 190.106 517.512C189.402 518.685 188.41 519.603 187.13 520.264C185.85 520.904 184.335 521.224 182.586 521.224ZM202.215 521.32C201.02 521.32 199.953 521.085 199.015 520.616C198.097 520.147 197.319 519.507 196.679 518.696C196.06 517.885 195.58 516.979 195.239 515.976C194.919 514.952 194.759 513.907 194.759 512.84C194.759 512.008 194.855 511.059 195.047 509.992C195.239 508.904 195.559 507.784 196.007 506.632C196.455 505.459 197.041 504.339 197.766 503.272C198.513 502.205 199.431 501.245 200.519 500.392C201.628 499.517 202.94 498.856 204.455 498.408C204.668 498.344 204.871 498.312 205.063 498.312C205.489 498.312 205.863 498.429 206.183 498.664C206.524 498.877 206.695 499.272 206.695 499.848C206.695 500.232 206.567 500.573 206.311 500.872C206.055 501.149 205.713 501.352 205.287 501.48C204.519 501.736 203.751 502.12 202.983 502.632C202.215 503.144 201.5 503.752 200.839 504.456C200.177 505.16 199.612 505.949 199.143 506.824C198.695 507.677 198.364 508.573 198.151 509.512L197.351 509.64C197.671 509.149 198.076 508.68 198.567 508.232C199.079 507.763 199.676 507.379 200.359 507.08C201.041 506.76 201.82 506.6 202.695 506.6C203.569 506.6 204.412 506.792 205.223 507.176C206.033 507.56 206.759 508.093 207.399 508.776C208.06 509.459 208.572 510.248 208.935 511.144C209.319 512.04 209.51 512.989 209.51 513.992C209.51 515.315 209.18 516.541 208.519 517.672C207.879 518.781 207.004 519.667 205.895 520.328C204.807 520.989 203.58 521.32 202.215 521.32ZM202.183 518.344C202.972 518.344 203.676 518.163 204.295 517.8C204.913 517.416 205.404 516.893 205.767 516.232C206.129 515.571 206.311 514.824 206.311 513.992C206.311 513.16 206.14 512.413 205.799 511.752C205.457 511.091 204.977 510.557 204.359 510.152C203.761 509.747 203.057 509.544 202.247 509.544C201.415 509.544 200.679 509.747 200.039 510.152C199.399 510.557 198.897 511.101 198.535 511.784C198.172 512.445 197.991 513.192 197.991 514.024C197.991 514.792 198.172 515.517 198.535 516.2C198.897 516.861 199.388 517.384 200.007 517.768C200.647 518.152 201.372 518.344 202.183 518.344ZM218.242 521.224C217.41 521.224 216.546 521.096 215.65 520.84C214.775 520.584 214.028 520.2 213.41 519.688C213.175 519.496 212.994 519.251 212.866 518.952C212.738 518.653 212.674 518.365 212.674 518.088C212.674 517.789 212.802 517.501 213.058 517.224C213.335 516.925 213.708 516.776 214.178 516.776C214.519 516.776 214.914 516.947 215.362 517.288C215.788 517.565 216.236 517.8 216.706 517.992C217.196 518.184 217.698 518.28 218.21 518.28C219.319 518.28 220.279 518.077 221.09 517.672C221.9 517.267 222.519 516.701 222.946 515.976C223.394 515.229 223.618 514.365 223.618 513.384C223.618 512.467 223.415 511.688 223.01 511.048C222.604 510.387 222.05 509.875 221.346 509.512C220.663 509.149 219.895 508.968 219.042 508.968C218.338 508.968 217.719 509.085 217.186 509.32C216.652 509.533 216.172 509.757 215.746 509.992C215.319 510.205 214.924 510.312 214.562 510.312C214.007 510.312 213.591 510.195 213.314 509.96C213.036 509.704 212.855 509.405 212.77 509.064C212.706 508.701 212.695 508.371 212.738 508.072L213.858 500.04C213.922 499.677 214.092 499.379 214.37 499.144C214.668 498.888 215.031 498.76 215.458 498.76H224.834C225.26 498.76 225.612 498.909 225.89 499.208C226.188 499.485 226.338 499.837 226.338 500.264C226.338 500.691 226.188 501.043 225.89 501.32C225.612 501.597 225.26 501.736 224.834 501.736H216.258L216.61 501.448L215.586 508.328L215.106 507.368C215.298 507.155 215.618 506.952 216.066 506.76C216.535 506.547 217.058 506.376 217.634 506.248C218.231 506.099 218.828 506.024 219.426 506.024C220.834 506.024 222.092 506.344 223.202 506.984C224.332 507.603 225.218 508.467 225.858 509.576C226.498 510.685 226.818 511.944 226.818 513.352C226.818 514.931 226.466 516.317 225.762 517.512C225.058 518.685 224.066 519.603 222.786 520.264C221.506 520.904 219.991 521.224 218.242 521.224ZM239.311 502.76L232.111 520.04C231.983 520.381 231.791 520.648 231.535 520.84C231.279 521.032 230.991 521.128 230.671 521.128C230.201 521.128 229.849 521 229.615 520.744C229.38 520.467 229.252 520.125 229.231 519.72C229.231 519.571 229.263 519.4 229.327 519.208L237.455 499.56C237.604 499.197 237.817 498.92 238.095 498.728C238.393 498.536 238.713 498.451 239.055 498.472C239.375 498.472 239.673 498.568 239.951 498.76C240.228 498.952 240.431 499.219 240.559 499.56L248.591 518.92C248.676 519.133 248.719 519.347 248.719 519.56C248.719 520.029 248.559 520.413 248.239 520.712C247.94 520.989 247.599 521.128 247.215 521.128C246.895 521.128 246.596 521.032 246.319 520.84C246.063 520.627 245.871 520.36 245.743 520.04L238.479 502.856L239.311 502.76ZM233.391 515.496L234.831 512.424H243.887L244.431 515.496H233.391Z" fill="black"/>
<path d="M122.96 638C122.491 638 122.117 637.819 121.84 637.456C121.584 637.093 121.488 636.656 121.552 636.144L124.88 616.784C124.944 616.421 125.104 616.133 125.36 615.92C125.616 615.707 125.915 615.6 126.256 615.6C126.747 615.6 127.131 615.781 127.408 616.144C127.685 616.507 127.781 616.944 127.696 617.456L124.368 636.816C124.325 637.157 124.165 637.445 123.888 637.68C123.632 637.893 123.323 638 122.96 638ZM121.744 623.696C121.317 623.696 120.955 623.557 120.656 623.28C120.379 622.981 120.24 622.619 120.24 622.192C120.24 621.787 120.379 621.456 120.656 621.2C120.955 620.944 121.317 620.816 121.744 620.816H137.232C137.659 620.816 138.011 620.965 138.288 621.264C138.587 621.541 138.736 621.893 138.736 622.32C138.736 622.725 138.587 623.056 138.288 623.312C138.011 623.568 137.659 623.696 137.232 623.696H121.744ZM131.504 638C131.013 638 130.629 637.819 130.352 637.456C130.075 637.093 129.979 636.656 130.064 636.144L133.392 616.784C133.456 616.421 133.616 616.133 133.872 615.92C134.128 615.707 134.437 615.6 134.8 615.6C135.291 615.6 135.664 615.781 135.92 616.144C136.197 616.507 136.293 616.944 136.208 617.456L132.88 636.816C132.837 637.157 132.688 637.445 132.432 637.68C132.176 637.893 131.867 638 131.504 638ZM120.528 632.624C120.101 632.624 119.739 632.485 119.44 632.208C119.163 631.909 119.024 631.557 119.024 631.152C119.024 630.747 119.163 630.416 119.44 630.16C119.739 629.904 120.101 629.776 120.528 629.776H136.048C136.475 629.776 136.827 629.915 137.104 630.192C137.403 630.469 137.552 630.821 137.552 631.248C137.552 631.653 137.403 631.984 137.104 632.24C136.827 632.496 136.475 632.624 136.048 632.624H120.528ZM152.166 615.6C154.129 615.6 155.611 616.08 156.614 617.04C157.638 618 158.15 619.397 158.15 621.232C158.15 622.192 157.915 623.067 157.446 623.856C156.998 624.624 156.326 625.232 155.43 625.68C154.555 626.128 153.457 626.363 152.134 626.384L152.198 625.2C152.902 625.2 153.659 625.296 154.47 625.488C155.302 625.68 156.081 626.011 156.806 626.48C157.531 626.949 158.129 627.589 158.598 628.4C159.067 629.189 159.302 630.181 159.302 631.376C159.302 632.677 159.089 633.765 158.662 634.64C158.235 635.493 157.67 636.165 156.966 636.656C156.262 637.147 155.483 637.499 154.63 637.712C153.798 637.904 152.977 638 152.166 638H143.974C143.526 638 143.142 637.851 142.822 637.552C142.502 637.232 142.342 636.837 142.342 636.368V617.232C142.342 616.763 142.502 616.379 142.822 616.08C143.142 615.76 143.526 615.6 143.974 615.6H152.166ZM151.718 618.736H145.414L145.798 618.224V625.104L145.446 624.752H151.782C152.55 624.731 153.222 624.475 153.798 623.984C154.395 623.472 154.694 622.725 154.694 621.744C154.694 620.741 154.427 619.995 153.894 619.504C153.361 618.992 152.635 618.736 151.718 618.736ZM151.942 627.888H145.574L145.798 627.664V635.216L145.542 634.928H152.134C153.243 634.928 154.139 634.64 154.822 634.064C155.505 633.467 155.846 632.571 155.846 631.376C155.846 630.373 155.643 629.627 155.238 629.136C154.833 628.645 154.331 628.315 153.734 628.144C153.137 627.973 152.539 627.888 151.942 627.888ZM175.504 635.024C175.93 635.024 176.282 635.173 176.56 635.472C176.858 635.749 177.008 636.101 177.008 636.528C177.008 636.955 176.858 637.307 176.56 637.584C176.282 637.861 175.93 638 175.504 638H164.272C163.802 638 163.429 637.861 163.152 637.584C162.874 637.307 162.736 636.933 162.736 636.464C162.736 636.037 162.885 635.653 163.184 635.312L170.32 627.6C171.237 626.619 171.941 625.648 172.432 624.688C172.944 623.728 173.2 622.885 173.2 622.16C173.2 620.987 172.848 620.037 172.144 619.312C171.44 618.587 170.512 618.224 169.36 618.224C168.869 618.224 168.368 618.341 167.856 618.576C167.365 618.789 166.896 619.088 166.448 619.472C166.021 619.835 165.648 620.261 165.328 620.752C165.114 621.051 164.901 621.243 164.688 621.328C164.474 621.413 164.272 621.456 164.08 621.456C163.674 621.456 163.301 621.317 162.96 621.04C162.64 620.741 162.48 620.4 162.48 620.016C162.48 619.717 162.576 619.429 162.768 619.152C162.96 618.875 163.205 618.587 163.504 618.288C163.973 617.712 164.538 617.2 165.2 616.752C165.882 616.283 166.597 615.92 167.344 615.664C168.09 615.408 168.826 615.28 169.552 615.28C170.96 615.28 172.176 615.557 173.2 616.112C174.245 616.667 175.045 617.445 175.6 618.448C176.176 619.451 176.464 620.635 176.464 622C176.464 623.152 176.112 624.432 175.408 625.84C174.725 627.227 173.765 628.592 172.528 629.936L167.568 635.344L167.216 635.024H175.504ZM191.166 615.6C193.129 615.6 194.611 616.08 195.614 617.04C196.638 618 197.15 619.397 197.15 621.232C197.15 622.192 196.915 623.067 196.446 623.856C195.998 624.624 195.326 625.232 194.43 625.68C193.555 626.128 192.457 626.363 191.134 626.384L191.198 625.2C191.902 625.2 192.659 625.296 193.47 625.488C194.302 625.68 195.081 626.011 195.806 626.48C196.531 626.949 197.129 627.589 197.598 628.4C198.067 629.189 198.302 630.181 198.302 631.376C198.302 632.677 198.089 633.765 197.662 634.64C197.235 635.493 196.67 636.165 195.966 636.656C195.262 637.147 194.483 637.499 193.63 637.712C192.798 637.904 191.977 638 191.166 638H182.974C182.526 638 182.142 637.851 181.822 637.552C181.502 637.232 181.342 636.837 181.342 636.368V617.232C181.342 616.763 181.502 616.379 181.822 616.08C182.142 615.76 182.526 615.6 182.974 615.6H191.166ZM190.718 618.736H184.414L184.798 618.224V625.104L184.446 624.752H190.782C191.55 624.731 192.222 624.475 192.798 623.984C193.395 623.472 193.694 622.725 193.694 621.744C193.694 620.741 193.427 619.995 192.894 619.504C192.361 618.992 191.635 618.736 190.718 618.736ZM190.942 627.888H184.574L184.798 627.664V635.216L184.542 634.928H191.134C192.243 634.928 193.139 634.64 193.822 634.064C194.505 633.467 194.846 632.571 194.846 631.376C194.846 630.373 194.643 629.627 194.238 629.136C193.833 628.645 193.331 628.315 192.734 628.144C192.137 627.973 191.539 627.888 190.942 627.888ZM214.504 635.024C214.93 635.024 215.282 635.173 215.56 635.472C215.858 635.749 216.008 636.101 216.008 636.528C216.008 636.955 215.858 637.307 215.56 637.584C215.282 637.861 214.93 638 214.504 638H203.272C202.802 638 202.429 637.861 202.152 637.584C201.874 637.307 201.736 636.933 201.736 636.464C201.736 636.037 201.885 635.653 202.184 635.312L209.32 627.6C210.237 626.619 210.941 625.648 211.432 624.688C211.944 623.728 212.2 622.885 212.2 622.16C212.2 620.987 211.848 620.037 211.144 619.312C210.44 618.587 209.512 618.224 208.36 618.224C207.869 618.224 207.368 618.341 206.856 618.576C206.365 618.789 205.896 619.088 205.448 619.472C205.021 619.835 204.648 620.261 204.328 620.752C204.114 621.051 203.901 621.243 203.688 621.328C203.474 621.413 203.272 621.456 203.08 621.456C202.674 621.456 202.301 621.317 201.96 621.04C201.64 620.741 201.48 620.4 201.48 620.016C201.48 619.717 201.576 619.429 201.768 619.152C201.96 618.875 202.205 618.587 202.504 618.288C202.973 617.712 203.538 617.2 204.2 616.752C204.882 616.283 205.597 615.92 206.344 615.664C207.09 615.408 207.826 615.28 208.552 615.28C209.96 615.28 211.176 615.557 212.2 616.112C213.245 616.667 214.045 617.445 214.6 618.448C215.176 619.451 215.464 620.635 215.464 622C215.464 623.152 215.112 624.432 214.408 625.84C213.725 627.227 212.765 628.592 211.528 629.936L206.568 635.344L206.216 635.024H214.504ZM230.166 615.6C232.129 615.6 233.611 616.08 234.614 617.04C235.638 618 236.15 619.397 236.15 621.232C236.15 622.192 235.915 623.067 235.446 623.856C234.998 624.624 234.326 625.232 233.43 625.68C232.555 626.128 231.457 626.363 230.134 626.384L230.198 625.2C230.902 625.2 231.659 625.296 232.47 625.488C233.302 625.68 234.081 626.011 234.806 626.48C235.531 626.949 236.129 627.589 236.598 628.4C237.067 629.189 237.302 630.181 237.302 631.376C237.302 632.677 237.089 633.765 236.662 634.64C236.235 635.493 235.67 636.165 234.966 636.656C234.262 637.147 233.483 637.499 232.63 637.712C231.798 637.904 230.977 638 230.166 638H221.974C221.526 638 221.142 637.851 220.822 637.552C220.502 637.232 220.342 636.837 220.342 636.368V617.232C220.342 616.763 220.502 616.379 220.822 616.08C221.142 615.76 221.526 615.6 221.974 615.6H230.166ZM229.718 618.736H223.414L223.798 618.224V625.104L223.446 624.752H229.782C230.55 624.731 231.222 624.475 231.798 623.984C232.395 623.472 232.694 622.725 232.694 621.744C232.694 620.741 232.427 619.995 231.894 619.504C231.361 618.992 230.635 618.736 229.718 618.736ZM229.942 627.888H223.574L223.798 627.664V635.216L223.542 634.928H230.134C231.243 634.928 232.139 634.64 232.822 634.064C233.505 633.467 233.846 632.571 233.846 631.376C233.846 630.373 233.643 629.627 233.238 629.136C232.833 628.645 232.331 628.315 231.734 628.144C231.137 627.973 230.539 627.888 229.942 627.888ZM253.504 635.024C253.93 635.024 254.282 635.173 254.56 635.472C254.858 635.749 255.008 636.101 255.008 636.528C255.008 636.955 254.858 637.307 254.56 637.584C254.282 637.861 253.93 638 253.504 638H242.272C241.802 638 241.429 637.861 241.152 637.584C240.874 637.307 240.736 636.933 240.736 636.464C240.736 636.037 240.885 635.653 241.184 635.312L248.32 627.6C249.237 626.619 249.941 625.648 250.432 624.688C250.944 623.728 251.2 622.885 251.2 622.16C251.2 620.987 250.848 620.037 250.144 619.312C249.44 618.587 248.512 618.224 247.36 618.224C246.869 618.224 246.368 618.341 245.856 618.576C245.365 618.789 244.896 619.088 244.448 619.472C244.021 619.835 243.648 620.261 243.328 620.752C243.114 621.051 242.901 621.243 242.688 621.328C242.474 621.413 242.272 621.456 242.08 621.456C241.674 621.456 241.301 621.317 240.96 621.04C240.64 620.741 240.48 620.4 240.48 620.016C240.48 619.717 240.576 619.429 240.768 619.152C240.96 618.875 241.205 618.587 241.504 618.288C241.973 617.712 242.538 617.2 243.2 616.752C243.882 616.283 244.597 615.92 245.344 615.664C246.09 615.408 246.826 615.28 247.552 615.28C248.96 615.28 250.176 615.557 251.2 616.112C252.245 616.667 253.045 617.445 253.6 618.448C254.176 619.451 254.464 620.635 254.464 622C254.464 623.152 254.112 624.432 253.408 625.84C252.725 627.227 251.765 628.592 250.528 629.936L245.568 635.344L245.216 635.024H253.504Z" fill="black"/>
</svg>
